<?xml version="1.0" standalone="no"?>
<!DOCTYPE svg PUBLIC "-//W3C//DTD SVG 1.1//EN" "http://www.w3.org/Graphics/SVG/1.1/DTD/svg11.dtd" >
<svg xmlns="http://www.w3.org/2000/svg" xmlns:xlink="http://www.w3.org/1999/xlink" version="1.1">
<metadata>
Created by FontForge 20170731 at Sat Jul 23 11:52:30 2022
 By Aleksey,,,
Copyright \(c\) 2016 by Deepak Singh Dogra. All rights reserved.
</metadata>
<defs>
<font id="Renogare-Regular" horiz-adv-x="1460" >
  <font-face 
    font-family="Renogare"
    font-weight="400"
    font-stretch="normal"
    units-per-em="2048"
    panose-1="0 0 0 0 0 0 0 0 0 0"
    ascent="1638"
    descent="-410"
    x-height="1122"
    cap-height="1497"
    bbox="-102 -629 2828 2083"
    underline-thickness="102"
    underline-position="-307"
    unicode-range="U+0020-2265"
  />
<missing-glyph horiz-adv-x="1064" 
 />
    <glyph glyph-name=".notdef" horiz-adv-x="1064" 
 />
    <glyph glyph-name=".null" horiz-adv-x="0" 
 />
    <glyph glyph-name="nonmarkingreturn" horiz-adv-x="682" 
 />
    <glyph glyph-name="space" unicode=" " horiz-adv-x="614" 
 />
    <glyph glyph-name="exclam" unicode="!" horiz-adv-x="624" 
d="M428 426h-240l-53 1069h346zM477 147q0 -67 -51 -115t-121 -48q-69 0 -118.5 48t-49.5 115q0 66 49.5 115t118.5 49t120.5 -49t51.5 -115z" />
    <glyph glyph-name="quotedbl" unicode="&#x22;" horiz-adv-x="946" 
d="M365 1030h-246l-35 469h313zM803 1030h-242l-37 469h316z" />
    <glyph glyph-name="numbersign" unicode="#" horiz-adv-x="1822" 
d="M1456 367h-280l-150 -367h-321l151 367h-235l-148 -367h-321l149 367h-276l116 290h277l80 197h-275l117 291h276l144 354h319l-141 -354h231l148 354h319l-145 -354h283l-117 -291h-283l-80 -197h281zM1053 854h-234l-78 -197h230z" />
    <glyph glyph-name="dollar" unicode="$" horiz-adv-x="1447" 
d="M530 1681h324v-161q117 -16 212 -59.5t222 -129.5l-182 -248q-231 154 -420 154q-39 0 -82 -8.5t-84 -25.5t-67.5 -46.5t-26.5 -66.5q0 -38 44.5 -71.5t115 -56t131 -36t119.5 -21.5q82 -15 132.5 -27t132.5 -46.5t129.5 -79t84.5 -124t37 -182.5q0 -207 -133.5 -324
t-364.5 -136v-164h-324v180q-67 11 -124 29.5t-120.5 54t-94 55t-109.5 72.5l176 254q136 -91 257.5 -143t238.5 -52q124 0 199 54.5t75 122.5q0 25 -11.5 46t-37.5 37t-51 27.5t-70.5 23t-76 18t-85.5 17.5q-43 7 -70.5 12t-79.5 17t-88.5 24t-86 33t-84.5 44.5t-72.5 57.5
t-60 72.5t-37.5 89.5t-15 109q0 103 35 183t97 130.5t135 80.5t161 45v165z" />
    <glyph glyph-name="percent" unicode="%" horiz-adv-x="2043" 
d="M469 657q-177 0 -291.5 119.5t-114.5 304.5q0 186 114.5 306t291.5 120t291 -120t114 -306q0 -181 -116 -302.5t-289 -121.5zM408 0l907 1468h278l-905 -1468h-280zM469 1262q-37 0 -62 -22t-35 -56.5t-13 -58t-3 -44.5q0 -17 3.5 -40t13 -58t34.5 -58.5t62 -23.5
q55 0 85 57.5t30 122.5q0 39 -10.5 78.5t-38 71t-66.5 31.5zM1542 -31q-177 0 -292 120.5t-115 307.5q0 184 115 304t292 120q175 0 290.5 -120t115.5 -304t-116.5 -306t-289.5 -122zM1542 578q-38 0 -63.5 -22.5t-35.5 -57t-13 -57.5t-3 -44q0 -18 3 -41t13 -58.5t35.5 -59
t63.5 -23.5q54 0 84.5 57.5t30.5 124.5q0 39 -10 77.5t-37.5 71t-67.5 32.5z" />
    <glyph glyph-name="ampersand" unicode="&#x26;" horiz-adv-x="1458" 
d="M1157 -35l-196 191q-133 -110 -215.5 -143t-208.5 -38q-185 -8 -322.5 98t-159.5 273q-13 119 34.5 213.5t148.5 177.5q13 10 51.5 37t54.5 39q-136 169 -115 363q13 85 61 158t120 120q106 68 241 68q53 0 107 -13q88 -23 159 -81t109 -138q39 -74 39 -157
q0 -96 -45 -179q-31 -59 -86 -105.5t-137 -94.5l166 -164q40 56 73 112.5t46.5 85t13.5 31.5l280 -135q-86 -156 -202 -305q169 -169 227 -232zM528 1145q-11 -95 74 -191q162 91 162 205q1 44 -34.5 72.5t-80.5 28.5q-43 0 -78 -29.5t-43 -85.5zM514 602q-31 -17 -84 -55
q-14 -12 -27 -28t-26 -55.5t-8 -82.5q5 -51 48.5 -87.5t106.5 -39.5q54 -2 104.5 16t76.5 36.5t59 47.5z" />
    <glyph glyph-name="quotesingle" unicode="'" horiz-adv-x="489" 
d="M360 1030h-243l-39 469h317z" />
    <glyph glyph-name="parenleft" unicode="(" horiz-adv-x="841" 
d="M651 1264q-243 -246 -243 -656q0 -407 243 -653q55 -53 129 -102l-188 -240q-112 80 -174 147v-2q-336 336 -336 850q0 513 336 852v-2q76 79 174 146l188 -236q-102 -75 -129 -102v-2z" />
    <glyph glyph-name="parenright" unicode=")" horiz-adv-x="763" 
d="M127 1266q-26 28 -127 102l188 236q98 -67 174 -146v2q334 -337 334 -852q0 -516 -334 -850v2q-62 -67 -174 -147l-188 240q77 52 127 102q246 249 246 653q0 199 -62.5 366t-183.5 290v2z" />
    <glyph glyph-name="asterisk" unicode="*" horiz-adv-x="925" 
d="M457 936l-133 -180l-197 123l149 182l-227 76l70 202l223 -75v229h227v-229l222 75l69 -202l-225 -76l139 -182l-186 -123z" />
    <glyph glyph-name="plus" unicode="+" horiz-adv-x="1208" 
d="M1130 467h-382v-375h-304v375h-381v278h381v375h304v-375h382v-278z" />
    <glyph glyph-name="comma" unicode="," horiz-adv-x="446" 
d="M377 176q10 -42 10 -76q0 -115 -78.5 -213.5t-210.5 -126.5l-47 103q118 37 144 121q-65 3 -108 47t-46 108q-3 67 45 118t117 54q63 2 111 -35t63 -100z" />
    <glyph glyph-name="hyphen" unicode="-" horiz-adv-x="870" 
d="M750 451h-652v278h652v-278z" />
    <glyph glyph-name="period" unicode="." horiz-adv-x="438" 
d="M387 147q0 -68 -50 -115.5t-120 -47.5q-69 0 -118.5 48t-49.5 115q0 66 49.5 115t118.5 49q70 0 120 -49t50 -115z" />
    <glyph glyph-name="slash" unicode="/" horiz-adv-x="1155" 
d="M-70 -276l940 1978h306l-943 -1978h-303z" />
    <glyph glyph-name="zero" unicode="0" horiz-adv-x="1591" 
d="M784 -31q-155 0 -289 62t-229 178q-87 105 -133.5 244t-46.5 295q0 169 51 313t142 245.5t221.5 158.5t283.5 57q149 0 278.5 -58t221.5 -160t144.5 -246t52.5 -310q0 -152 -49 -292.5t-138 -246.5q-95 -112 -229.5 -176t-280.5 -64zM784 1227q-66 0 -129 -29
t-117.5 -84.5t-88 -150.5t-33.5 -215q0 -70 13.5 -137.5t43 -130.5t72 -111t104 -76.5t135.5 -28.5q67 0 131.5 32t117.5 91t85.5 153t32.5 208q0 102 -27.5 200t-76.5 158q-103 121 -263 121z" />
    <glyph glyph-name="one" unicode="1" horiz-adv-x="946" 
d="M782 1499v-1499h-325v961l-205 -189l-223 232l542 495h211z" />
    <glyph glyph-name="two" unicode="2" horiz-adv-x="1368" 
d="M1227 281v-281h-1086v301l234 191l313 251q85 66 130 122.5t56 94.5t11 89q0 53 -19.5 91.5t-53 59t-70.5 30t-78 9.5q-36 0 -68.5 -12.5t-55 -29.5t-43 -45t-31.5 -46.5t-22.5 -47t-13.5 -34.5t-6 -20l-315 77q14 50 40.5 104.5t74.5 116t108 109.5t147 79.5t185 31.5
q108 0 199.5 -27.5t154.5 -73.5t107 -107.5t64.5 -128t20.5 -136.5q0 -78 -25 -152t-73 -141t-103 -124t-128 -118q-20 -16 -125.5 -99.5t-171.5 -133.5h643z" />
    <glyph glyph-name="three" unicode="3" horiz-adv-x="1277" 
d="M1169 1090q0 -74 -18 -131t-52 -95.5t-69 -62.5t-82 -45q221 -94 221 -344q0 -153 -94 -265q-57 -67 -141 -108.5t-158 -54.5t-153 -13q-89 0 -165.5 21t-132 58t-99.5 80t-74.5 94.5t-49 93.5t-30.5 85l290 89q6 -19 11 -34.5t27.5 -58t49 -71.5t73 -53.5t100.5 -24.5
q106 0 163.5 46t57.5 116q0 56 -16 95t-45 63t-78.5 37.5t-105.5 18t-138 3.5v258q59 2 98 5t83.5 9t71.5 15t54.5 23.5t42.5 35t24 49.5t9 66q0 69 -57.5 114t-163.5 45q-58 0 -105.5 -21.5t-73.5 -50t-46 -66.5t-26 -59.5t-10 -41.5l-290 90q15 52 38 102t68.5 112
t103 107.5t147 77t194.5 31.5q97 0 179.5 -18t141 -50.5t103 -74.5t70.5 -92t39 -101t13 -104z" />
    <glyph glyph-name="four" unicode="4" horiz-adv-x="1431" 
d="M1343 604v-280h-186v-324h-323v324h-732v262l811 913h244v-895h186zM834 967l-310 -363h310v363z" />
    <glyph glyph-name="five" unicode="5" horiz-adv-x="1312" 
d="M657 1012q257 0 401 -140t144 -389q0 -227 -160.5 -369.5t-408.5 -142.5q-107 0 -198 21t-159.5 60.5t-117.5 81t-95 95.5l201 240q0 -2 14.5 -22.5t46.5 -52.5t73.5 -62t104.5 -52.5t130 -23.5q96 -2 168 58t76 169q6 123 -55 197t-177 78q-59 1 -108 -9.5t-86.5 -33
t-60 -41t-48.5 -45.5l-242 127l146 743h860v-282h-596l-47 -261q95 56 194 56z" />
    <glyph glyph-name="six" unicode="6" horiz-adv-x="1382" 
d="M721 1028q246 9 394.5 -133t148.5 -393q0 -234 -144 -371q-165 -160 -448 -160q-136 0 -248 47t-183.5 126t-110 181.5t-38.5 215.5q0 148 62 278q60 129 477 680h401q-108 -139 -358 -477q36 6 47 6zM416 500q0 -106 77 -180t187 -74q112 0 189 74t77 180
q0 107 -77 181.5t-189 74.5q-110 0 -187 -74.5t-77 -181.5z" />
    <glyph glyph-name="seven" unicode="7" horiz-adv-x="1261" 
d="M1184 1499v-295l-705 -1204h-373l730 1217h-777v282h1125z" />
    <glyph glyph-name="eight" unicode="8" horiz-adv-x="1323" 
d="M1169 1092q0 -95 -47.5 -177.5t-122.5 -121.5q94 -40 161 -135.5t67 -204.5q0 -119 -45.5 -212.5t-125 -151.5t-183 -88t-224.5 -30t-224.5 30t-182.5 88t-124.5 151.5t-45.5 212.5q0 112 69.5 209.5t165.5 132.5q-71 44 -124.5 126.5t-53.5 170.5q0 121 70.5 220
t189.5 153.5t260 54.5t260 -54.5t189.5 -153.5t70.5 -220zM457 1061q0 -76 54.5 -117t137.5 -41q82 0 137.5 41.5t55.5 116.5q0 92 -53.5 134t-139.5 42q-85 0 -138.5 -43t-53.5 -133zM649 254q111 0 181.5 49t70.5 150q0 91 -73 146.5t-179 55.5t-179 -54.5t-73 -147.5
q0 -101 71 -150t181 -49z" />
    <glyph glyph-name="nine" unicode="9" horiz-adv-x="1398" 
d="M655 471q-119 -5 -222.5 37t-172.5 116t-108 171t-39 202q0 230 143 373q163 158 446 158q194 0 344.5 -97t202.5 -257v2q39 -104 39 -218q0 -133 -65 -278q-35 -71 -178.5 -273t-299.5 -407h-401l356 477q-21 -6 -45 -6zM432 1001q0 -107 76.5 -180t187.5 -73
q112 0 188.5 73t76.5 180q0 106 -76.5 180t-188.5 74q-110 0 -187 -74t-77 -180z" />
    <glyph glyph-name="colon" unicode=":" horiz-adv-x="438" 
d="M385 713q0 -66 -50 -114t-120 -48t-119 48t-49 114q0 68 49 116t119 48t120 -48t50 -116zM385 147q0 -68 -50 -115.5t-120 -47.5t-119 47.5t-49 115.5q0 67 49 115.5t119 48.5t120 -49t50 -115z" />
    <glyph glyph-name="semicolon" unicode=";" horiz-adv-x="454" 
d="M387 713q0 -66 -50 -114t-120 -48t-119 48t-49 114q0 68 49 116t119 48t120 -48t50 -116zM377 176q10 -42 10 -76q0 -115 -78.5 -213.5t-210.5 -126.5l-47 103q118 37 144 121q-65 3 -108 47t-46 108q-3 67 45 118t117 54q63 2 111 -35t63 -100z" />
    <glyph glyph-name="less" unicode="&#x3c;" horiz-adv-x="1177" 
d="M1061 1174v-320l-604 -252l604 -250v-319l-961 432v276z" />
    <glyph glyph-name="equal" unicode="=" horiz-adv-x="1196" 
d="M1077 686h-981v279h981v-279zM1077 203h-981v278h981v-278z" />
    <glyph glyph-name="greater" unicode="&#x3e;" horiz-adv-x="1177" 
d="M1061 741v-276l-961 -432v319l605 250l-605 252v320z" />
    <glyph glyph-name="question" unicode="?" horiz-adv-x="1230" 
d="M1001 1382q119 -125 119 -282q0 -53 -11 -100.5t-26.5 -82t-43 -67.5t-49.5 -53.5t-58.5 -44.5t-58 -35.5t-58.5 -30.5q-88 -46 -122 -102t-34 -160h-317q0 163 83 300t232 214q81 41 109.5 71t28.5 87q0 12 -2.5 25t-15.5 34t-35 36t-65 26.5t-102 11.5
q-61 0 -112.5 -20t-86 -53.5t-57 -69.5t-36.5 -76l-297 94q9 27 21 55.5t37.5 73.5t56 83.5t78.5 80.5t103 71.5t131 48.5t162 19q154 0 260 -45t166 -109zM676 147q0 66 -51.5 115t-120.5 49t-118.5 -49t-49.5 -115q0 -67 49.5 -115t118.5 -48q70 0 121 48t51 115z" />
    <glyph glyph-name="at" unicode="@" horiz-adv-x="1804" 
d="M1479 1167q227 -186 227 -524q0 -348 -172 -471q-76 -55 -174 -55q-52 0 -86 10q-79 17 -144 90q-105 -94 -272 -94q-195 0 -306.5 116t-111.5 316q0 192 115.5 310t304.5 118q103 0 180 -41v33h242v-514q0 -42 13 -79t42 -46q62 -10 93.5 69.5t31.5 237.5
q0 245 -139 354q-149 121 -438 121q-112 0 -206 -31.5t-158.5 -84.5t-109 -123.5t-65 -148t-20.5 -159.5q0 -83 13 -158t50 -154t95 -135.5t157.5 -93t228.5 -36.5q71 0 133.5 8.5t101 20.5t68.5 25.5t42 22t14 11.5l153 -133q-158 -162 -508 -162q-378 0 -584 206.5
t-206 577.5q0 152 53 289.5t152 243.5q110 115 262 175t334 60q383 0 594 -172zM1040 514v94q-2 32 -8.5 56.5t-24 52t-55 42.5t-92.5 15q-48 0 -82.5 -21.5t-51.5 -56.5t-24.5 -70t-7.5 -71q0 -61 15 -106t40.5 -67.5t52 -33t56.5 -10.5q77 0 128 41.5t54 134.5z" />
    <glyph glyph-name="A" unicode="A" horiz-adv-x="1648" 
d="M-6 0l821 1544l821 -1544h-354l-119 229h-698l-115 -229h-356zM625 506h383l-193 391z" />
    <glyph glyph-name="B" unicode="B" horiz-adv-x="1439" 
d="M1268 1081q0 -100 -52.5 -182.5t-136.5 -116.5q103 -35 176.5 -133t73.5 -215q0 -120 -43 -207.5t-119 -135.5t-165 -69.5t-197 -21.5h-647v1497h622q488 0 488 -416zM483 903h303q79 0 117.5 49.5t38.5 116.5q0 59 -45 103.5t-109 44.5h-305v-314zM805 281
q95 0 148 49.5t53 120.5q0 72 -54 121t-153 49h-316v-340h322z" />
    <glyph glyph-name="C" unicode="C" horiz-adv-x="1656" 
d="M1593 385q-109 -189 -298.5 -301.5t-411.5 -112.5q-164 0 -313 61.5t-257.5 166t-172.5 248t-64 301.5q0 209 108.5 387.5t294.5 282.5t404 104q222 0 411.5 -112t298.5 -298l-301 -117q-71 102 -180.5 168t-228.5 66q-130 0 -241.5 -66.5t-176 -177.5t-64.5 -237
t64.5 -237.5t176 -179t241.5 -67.5q119 0 228.5 67t180.5 171z" />
    <glyph glyph-name="D" unicode="D" horiz-adv-x="1673" 
d="M160 0v1497h618q335 0 547 -188q115 -99 174.5 -242t59.5 -317q0 -170 -61.5 -316.5t-172.5 -247.5q-211 -186 -547 -186h-618zM483 281h295q68 0 126.5 10.5t121 41.5t106 80.5t71.5 135.5t28 199t-28.5 199t-72 135.5t-106 80t-121 41t-125.5 10.5h-295v-933z" />
    <glyph glyph-name="E" unicode="E" horiz-adv-x="1433" 
d="M481 1217v-334h717v-283h-717v-319h811v-281h-1134v1497h1134v-280h-811z" />
    <glyph glyph-name="F" unicode="F" horiz-adv-x="1368" 
d="M483 1217v-330h715v-281h-715v-606h-325v1497h1134v-280h-809z" />
    <glyph glyph-name="G" unicode="G" horiz-adv-x="1763" 
d="M1665 834q4 -82 4 -121q0 -24 -4 -86q-12 -141 -79.5 -263.5t-172.5 -208.5t-242.5 -135t-287.5 -49q-164 0 -313 61.5t-257.5 166t-172.5 248t-64 301.5q0 210 108.5 388.5t294.5 283t404 104.5q207 0 386.5 -97.5t291.5 -263.5l-279 -162q-73 101 -178 164.5t-221 63.5
q-130 0 -242.5 -66.5t-178 -177.5t-65.5 -237t65.5 -238t178 -179t242.5 -67q146 0 273.5 83t162.5 202h-559v285h905z" />
    <glyph glyph-name="H" unicode="H" horiz-adv-x="1683" 
d="M1505 1497v-1497h-321v582h-703v-582h-321v1497h321v-635h703v635h321z" />
    <glyph glyph-name="I" unicode="I" horiz-adv-x="724" 
d="M520 0h-323v1497h323v-1497z" />
    <glyph glyph-name="J" unicode="J" horiz-adv-x="1296" 
d="M1130 1495v-958q0 -262 -159 -414t-422 -152q-180 0 -317.5 86.5t-208.5 241.5l294 125q32 -70 89 -118t143 -48q64 0 112.5 19.5t75 48t43 68.5t21 73.5t4.5 69.5v958h325z" />
    <glyph glyph-name="K" unicode="K" horiz-adv-x="1538" 
d="M483 485v-485h-323v1497h323v-625l584 625h401l-616 -635l643 -862h-397l-469 637z" />
    <glyph glyph-name="L" unicode="L" horiz-adv-x="1306" 
d="M1268 281v-281h-1110v1497h325v-1216h785z" />
    <glyph glyph-name="M" unicode="M" horiz-adv-x="1912" 
d="M1729 1544v-1544h-326v715l-459 -533l-459 533v-715h-325v1544l784 -885z" />
    <glyph glyph-name="N" unicode="N" horiz-adv-x="1695" 
d="M481 852v-852h-321v1544l1032 -913v864h324v-1542z" />
    <glyph glyph-name="O" unicode="O" horiz-adv-x="1802" 
d="M889 -29q-218 0 -403.5 104.5t-293.5 284t-108 390.5q0 210 108 388.5t293.5 283t403.5 104.5q164 0 314 -62t258.5 -166t172.5 -247.5t64 -300.5q0 -211 -108.5 -390.5t-295 -284t-405.5 -104.5zM889 1231q-130 0 -242 -66.5t-176.5 -177.5t-64.5 -237q0 -127 64.5 -239
t176.5 -179.5t242 -67.5q131 0 243 67.5t176 179.5t64 239q0 126 -64 237t-176 177.5t-243 66.5z" />
    <glyph glyph-name="P" unicode="P" horiz-adv-x="1404" 
d="M768 1497q138 0 253 -42t191 -114.5t118 -170.5t42 -209q0 -112 -39 -207t-113 -166t-190.5 -111.5t-263.5 -40.5h-283v-436h-323v1497h608zM813 717q114 0 174 71.5t60 172.5q0 103 -71.5 179.5t-195.5 76.5h-297v-500h330z" />
    <glyph glyph-name="Q" unicode="Q" horiz-adv-x="1802" 
d="M889 -29q-218 0 -403.5 104.5t-293.5 284t-108 390.5q0 210 108 388.5t293.5 283t403.5 104.5q164 0 314 -62t258.5 -166t172.5 -247.5t64 -300.5q0 -279 -185 -496l134 -137l-230 -221l-157 161q-177 -86 -371 -86zM934 395l229 221l127 -133q82 125 82 267
q0 126 -64 237t-176 177.5t-243 66.5q-130 0 -242 -66.5t-176.5 -177.5t-64.5 -237q0 -127 64.5 -239t176.5 -179.5t242 -67.5q70 0 147 23z" />
    <glyph glyph-name="R" unicode="R" horiz-adv-x="1492" 
d="M481 0h-321v1497h665q241 0 391 -144.5t150 -375.5q0 -161 -82 -287.5t-223 -187.5q146 -184 387 -502h-387q-143 180 -359 467h-221v-467zM481 748h344q84 0 151.5 60t67.5 169q0 28 -4 55.5t-18.5 62.5t-37 60.5t-64 43.5t-95.5 18h-344v-469z" />
    <glyph glyph-name="S" unicode="S" horiz-adv-x="1447" 
d="M264 453q89 -73 233.5 -132t266.5 -59q127 0 201.5 49.5t74.5 116.5q0 25 -10 46t-24.5 36t-42.5 29t-51 22.5t-63.5 18t-67.5 15t-74 13.5q-43 7 -70.5 12t-79.5 17t-88.5 24t-86 33t-84.5 44.5t-72.5 57.5t-60 72.5t-37.5 89.5t-15 109q0 103 37 183.5t95.5 130
t138.5 82t159 45t164 12.5q184 0 319.5 -50.5t271.5 -150.5l-180 -246q-216 154 -424 154q-40 0 -80.5 -7t-82.5 -22t-68.5 -46t-26.5 -73q0 -28 15.5 -50.5t40.5 -37.5t59.5 -27t71 -20.5t75.5 -16.5q24 -5 35 -7q23 -5 76 -15t84 -16.5t83.5 -20t85 -25.5t78 -33.5
t73.5 -44.5t60 -57t49.5 -72.5t29.5 -89.5t12 -110q0 -227 -161 -346t-435 -119q-403 0 -676 234z" />
    <glyph glyph-name="T" unicode="T" horiz-adv-x="1325" 
d="M1286 1217h-434v-1217h-326v1217h-436v280h1196v-280z" />
    <glyph glyph-name="U" unicode="U" horiz-adv-x="1679" 
d="M831 -27q-306 0 -488.5 172.5t-182.5 460.5v889h323v-889q0 -81 24 -145t60.5 -102t84.5 -63.5t92 -34.5t87 -9q42 0 85 9t91 34.5t84.5 63.5t60.5 102t24 145v889h323v-889q0 -288 -182 -460.5t-486 -172.5z" />
    <glyph glyph-name="V" unicode="V" horiz-adv-x="1536" 
d="M1526 1495l-760 -1532l-756 1532h357l399 -827l401 827h359z" />
    <glyph glyph-name="W" unicode="W" horiz-adv-x="2111" 
d="M2077 1495l-604 -1550l-429 889l-432 -889l-598 1550h348l289 -776l393 815l394 -815l295 776h344z" />
    <glyph glyph-name="X" unicode="X" horiz-adv-x="1605" 
d="M604 741l-592 754h408l387 -516l387 516h403l-587 -754l577 -741h-405l-375 498l-375 -498h-407z" />
    <glyph glyph-name="Y" unicode="Y" horiz-adv-x="1503" 
d="M1503 1495l-594 -928v-567h-323v567l-590 928h379l373 -604l376 604h379z" />
    <glyph glyph-name="Z" unicode="Z" horiz-adv-x="1495" 
d="M590 281h811v-281h-1403l881 1214h-779v281h1373z" />
    <glyph glyph-name="bracketleft" unicode="[" horiz-adv-x="802" 
d="M756 -457h-596v2149h596v-283h-273v-1583h273v-283z" />
    <glyph glyph-name="backslash" unicode="\" horiz-adv-x="1050" 
d="M-100 1702h315l762 -1978h-315z" />
    <glyph glyph-name="bracketright" unicode="]" horiz-adv-x="714" 
d="M10 -477v282h273v1584h-273v282h596v-2148h-596z" />
    <glyph glyph-name="asciicircum" unicode="^" horiz-adv-x="1288" 
d="M848 748l-219 456l-223 -456h-332l391 761h326l391 -761h-334z" />
    <glyph glyph-name="underscore" unicode="_" horiz-adv-x="1423" 
d="M1288 -246h-1186v279h1186v-279z" />
    <glyph glyph-name="grave" unicode="`" horiz-adv-x="604" 
d="M567 1204h-241l-308 221l279 115z" />
    <glyph glyph-name="a" unicode="a" 
d="M995 0v113q-39 -53 -134.5 -95.5t-207.5 -42.5q-173 0 -303 80t-196 212t-66 296t66 296t196 212t303 80q117 0 206.5 -40t135.5 -101v116h303v-1126h-303zM1008 563q0 141 -84.5 230.5t-225.5 89.5q-143 0 -226 -89.5t-83 -230.5q0 -136 85.5 -226.5t223.5 -90.5
q143 0 226.5 85t83.5 232z" />
    <glyph glyph-name="b" unicode="b" 
d="M444 0h-303v1548h303v-538q46 61 135.5 101t206.5 40q173 0 303.5 -80t196.5 -212.5t66 -295.5t-66 -295.5t-196.5 -212.5t-303.5 -80q-112 0 -207.5 42.5t-134.5 95.5v-113zM432 563q0 -147 83 -232t226 -85q139 0 224.5 90.5t85.5 226.5q0 141 -83.5 230.5t-226.5 89.5
q-141 0 -225 -89.5t-84 -230.5z" />
    <glyph glyph-name="c" unicode="c" horiz-adv-x="1331" 
d="M702 -29q-165 0 -306.5 79t-224.5 214.5t-83 294.5t82.5 294t223.5 213.5t306 78.5q179 0 323 -85t230 -243l-276 -108q-101 168 -277 168q-133 0 -220 -90.5t-87 -227.5q0 -138 87.5 -227.5t221.5 -89.5q184 0 285 164l260 -103q-164 -332 -545 -332z" />
    <glyph glyph-name="d" unicode="d" 
d="M995 0v113q-39 -53 -134.5 -95.5t-207.5 -42.5q-173 0 -303 80t-196 212t-66 296t66 296t196 212t303 80q117 0 206.5 -40t135.5 -101v538h303v-1548h-303zM1008 563q0 141 -84.5 230.5t-225.5 89.5q-143 0 -226 -89.5t-83 -230.5q0 -136 85.5 -226.5t223.5 -90.5
q143 0 226.5 85t83.5 232z" />
    <glyph glyph-name="e" unicode="e" horiz-adv-x="1394" 
d="M700 -29q-72 0 -148.5 16t-161 58.5t-150.5 106t-109 169.5t-43 238t44 238t110.5 169t151.5 105t160.5 58t145.5 16q110 0 212.5 -37t185.5 -106t134.5 -177t55.5 -239q0 -38 -1.5 -73.5t-2.5 -52.5l-2 -16h-889q10 -52 40.5 -91.5t65.5 -60t78 -33.5t71 -16t52 -3
q59 0 110 13.5t87 38.5t54 41t38 38l238 -138q-193 -262 -527 -262zM698 877q-127 0 -207.5 -62.5t-89.5 -152.5h564q-10 83 -84 149t-183 66z" />
    <glyph glyph-name="f" unicode="f" horiz-adv-x="798" 
d="M500 846v-846h-307v846h-127v262h127q7 220 124 334t324 114q61 0 135 -18l-16 -248q-56 16 -115 10q-49 -5 -80 -24t-44 -50t-17 -56.5t-4 -61.5h202v-262h-202z" />
    <glyph glyph-name="g" unicode="g" 
d="M1298 100q0 -244 -150 -384t-419 -140q-324 0 -539 170l150 217q72 -57 171.5 -92.5t211.5 -32.5q70 2 121.5 20.5t80 44t45 62.5t21 67.5t4.5 67.5v19q-122 -101 -315 -101q-135 0 -247.5 44.5t-187.5 121.5t-116 179.5t-41 218.5q0 117 41 219.5t116 179.5t187.5 121.5
t247.5 44.5q194 0 315 -100v79h303v-1026zM698 276q131 0 220.5 88.5t89.5 217.5q0 130 -89.5 217.5t-220.5 87.5q-139 0 -224 -87t-85 -218q0 -135 83 -220.5t226 -85.5z" />
    <glyph glyph-name="h" unicode="h" horiz-adv-x="1351" 
d="M750 1147q120 0 206.5 -33.5t138 -97.5t75.5 -150.5t24 -199.5v-666h-311v666q0 227 -219 227q-28 0 -55.5 -7t-58 -27t-53 -51.5t-36.5 -86.5t-12 -125v-596h-306v1550h306v-524q55 55 139.5 88t161.5 33z" />
    <glyph glyph-name="i" unicode="i" horiz-adv-x="624" 
d="M477 1411q0 -69 -49.5 -117.5t-118.5 -48.5q-71 0 -121.5 48.5t-50.5 117.5q0 67 50.5 115.5t121.5 48.5q69 0 118.5 -48.5t49.5 -115.5zM156 0v1124h307v-1124h-307z" />
    <glyph glyph-name="j" unicode="j" horiz-adv-x="653" 
d="M504 1411q0 -69 -50.5 -117.5t-119.5 -48.5q-70 0 -121 49t-51 117q0 67 51.5 115.5t120.5 48.5t119.5 -48.5t50.5 -115.5zM489 1124v-1114q0 -120 -29.5 -203.5t-88.5 -132.5t-139 -70.5t-189 -21.5q-49 0 -135 21l16 260q61 -21 115 -21q41 0 69.5 11.5t42.5 26
t21.5 41.5t8.5 43t1 46v1114h307z" />
    <glyph glyph-name="k" unicode="k" horiz-adv-x="1267" 
d="M143 1548h308v-901l383 473h374l-452 -524l471 -596h-371l-295 369l-110 -127v-242h-308v1548z" />
    <glyph glyph-name="l" unicode="l" horiz-adv-x="602" 
d="M143 0v1548h308v-1548h-308z" />
    <glyph glyph-name="m" unicode="m" horiz-adv-x="2113" 
d="M1470 1147q236 0 351.5 -126.5t115.5 -354.5v-666h-309v666q0 227 -219 227q-35 0 -69 -12t-68.5 -39.5t-55.5 -83t-22 -131.5v-627h-309v666q0 121 -60 174t-157 53q-40 0 -74.5 -12.5t-68.5 -43t-54 -92t-20 -149.5l-2 -596h-306v1126h306v-102q59 53 143 88t153 35
q238 0 363 -154q65 72 158 113t204 41z" />
    <glyph glyph-name="n" unicode="n" horiz-adv-x="1347" 
d="M745 1147q235 0 340 -125t105 -356v-666h-313v666q0 227 -218 227q-28 0 -55.5 -7t-58 -27t-53 -51.5t-36.5 -86.5t-12 -125v-596h-305v1126h305v-100q55 55 139.5 88t161.5 33z" />
    <glyph glyph-name="o" unicode="o" horiz-adv-x="1421" 
d="M698 -27q-165 0 -305.5 78.5t-222.5 214t-82 295.5q0 158 82 293t222.5 214t305.5 79q124 0 237.5 -46.5t196.5 -125t132 -187.5t49 -227q0 -160 -83 -295.5t-224.5 -214t-307.5 -78.5zM698 879q-129 0 -219 -92.5t-90 -225.5q0 -139 88 -230t221 -91q131 0 220.5 92.5
t89.5 228.5q0 135 -89.5 226.5t-220.5 91.5z" />
    <glyph glyph-name="p" unicode="p" 
d="M444 1126v-112q39 53 134.5 95t207.5 42q173 0 303.5 -80t196.5 -212.5t66 -295.5t-66 -295.5t-196.5 -212.5t-303.5 -80q-117 0 -206.5 40.5t-135.5 101.5v-479h-303v1488h303zM432 563q0 -141 84 -230t225 -89q143 0 226.5 89t83.5 230q0 136 -86 227t-224 91
q-143 0 -226 -85.5t-83 -232.5z" />
    <glyph glyph-name="q" unicode="q" 
d="M995 1126h303v-1488h-303v479q-46 -61 -135.5 -101.5t-206.5 -40.5q-173 0 -303 80t-196 212t-66 296t66 296t196 212t303 80q112 0 207.5 -42t134.5 -95v112zM1008 563q0 147 -83.5 232.5t-226.5 85.5q-138 0 -223.5 -91t-85.5 -227q0 -141 83 -230t226 -89
q141 0 225.5 89t84.5 230z" />
    <glyph glyph-name="r" unicode="r" horiz-adv-x="868" 
d="M827 848q-14 3 -38 0.5t-53.5 -4.5t-63 -14t-66 -26.5t-62.5 -43t-52.5 -63t-36 -86t-13.5 -113.5v-498h-305v1126h305v-149q40 53 95.5 90t111.5 53t98.5 22t79.5 5v-299z" />
    <glyph glyph-name="s" unicode="s" horiz-adv-x="1171" 
d="M606 -27q-306 0 -528 177l160 212q74 -50 172 -85t192 -35q70 0 116 28.5t46 71.5q0 18 -12.5 32.5t-30 23.5t-44.5 16t-46.5 10t-47.5 7t-36 5q-161 28 -239 61q-208 88 -208 294q0 68 20.5 123.5t52 91.5t76.5 63.5t87 41.5t89.5 23t79 11t60.5 2q133 0 245.5 -39
t223.5 -123l-160 -209q-180 105 -319 105q-51 0 -99 -23t-48 -61q0 -75 213 -101q159 -28 221 -49q178 -61 216 -211q11 -44 11 -96q0 -175 -121 -271t-342 -96z" />
    <glyph glyph-name="t" unicode="t" horiz-adv-x="839" 
d="M520 877v-476q0 -25 1 -41.5t8.5 -43t21 -42.5t41.5 -28.5t67 -12.5q33 0 78 5v-258q-83 -9 -137 -9q-77 0 -132 6.5t-105 24t-80.5 48.5t-48 81.5t-17.5 120.5v625h-137v268h137v301h303v-301h225v-268h-225z" />
    <glyph glyph-name="u" unicode="u" horiz-adv-x="1347" 
d="M582 -25q-443 0 -443 482v665h310v-665q0 -120 60.5 -173t158.5 -53q37 0 72 12.5t70 42.5t55.5 92t17.5 148v596h307v-1122h-307v96q-56 -57 -134 -89t-167 -32z" />
    <glyph glyph-name="v" unicode="v" horiz-adv-x="1222" 
d="M600 -49l-602 1171h340l262 -551l262 551h342z" />
    <glyph glyph-name="w" unicode="w" horiz-adv-x="1622" 
d="M489 -47l-479 1169h326l188 -499l273 561l276 -563l195 501h323l-483 -1169l-311 598z" />
    <glyph glyph-name="x" unicode="x" horiz-adv-x="1282" 
d="M860 0l-229 334l-236 -334h-383l424 557l-430 565h381l244 -346l239 346h385l-436 -565l426 -557h-385z" />
    <glyph glyph-name="y" unicode="y" horiz-adv-x="1316" 
d="M645 -422h-338l195 463l-484 1081h355l284 -716l263 716h354z" />
    <glyph glyph-name="z" unicode="z" horiz-adv-x="1159" 
d="M602 858h-528v264h1071l-615 -856h551v-266h-1091z" />
    <glyph glyph-name="braceleft" unicode="{" horiz-adv-x="876" 
d="M520 283q-1 -25 -2.5 -80.5t-1.5 -75.5t1 -58.5t6 -58.5t14.5 -46t23.5 -48q21 -32 56 -54.5t70 -32.5t67.5 -15.5t52.5 -5.5l20 -1v-288q-19 0 -49 2.5t-91 14.5t-119 31.5t-125.5 60t-116.5 93.5q-36 42 -61 97.5t-36.5 100t-18 107.5t-7 92t-0.5 81q1 40 0.5 75
t-3.5 64t-11 52t-21.5 39.5t-36 26.5t-53.5 13v299q31 3 53.5 13t36 26.5t21.5 39.5t11 52t3.5 64t-0.5 75q0 52 0.5 81t7 92t18 107.5t36.5 100t61 97.5q49 53 116.5 93.5t125.5 60t119 31.5t91 14.5t49 2.5v-288q-8 0 -21.5 -0.5t-50.5 -5.5t-69 -15.5t-68 -33t-57 -54.5
q-14 -22 -23.5 -48t-14.5 -46t-6 -58.5t-1 -58.5t1.5 -75.5t2.5 -80.5q0 -128 -58.5 -213.5t-142.5 -122.5q84 -37 142.5 -121.5t58.5 -213.5z" />
    <glyph glyph-name="bar" unicode="|" horiz-adv-x="608" 
d="M422 -213h-244v1919h244v-1919z" />
    <glyph glyph-name="braceright" unicode="}" horiz-adv-x="876" 
d="M350 283q0 129 58.5 213.5t142.5 121.5q-84 37 -142.5 122.5t-58.5 213.5q1 25 2.5 80.5t1.5 75.5t-1 58.5t-6 58.5t-14.5 46t-23.5 48q-21 32 -56 54.5t-70 32.5t-67.5 15.5t-52.5 6.5h-20v288q19 0 49 -2.5t91.5 -14.5t119.5 -31.5t125.5 -60t116.5 -93.5
q36 -42 61 -97.5t36.5 -100t18 -107.5t7 -92t0.5 -81q-1 -40 -0.5 -75t3.5 -64t11 -52t21.5 -39.5t36 -26.5t53.5 -13v-299q-31 -3 -53.5 -13t-36 -26.5t-21.5 -39.5t-11 -52t-3.5 -64t0.5 -75q0 -52 -0.5 -81t-7 -92t-18 -107.5t-36.5 -100t-61 -97.5q-49 -53 -116.5 -93.5
t-125.5 -60t-119.5 -31.5t-91.5 -14.5t-49 -2.5v288q8 0 21.5 0.5t50.5 5.5t69 15.5t68 33t57 54.5q14 22 23.5 48t14.5 46t6 58.5t1 58.5t-1.5 75.5t-2.5 80.5z" />
    <glyph glyph-name="asciitilde" unicode="~" horiz-adv-x="1222" 
d="M776 653q-59 0 -115.5 20.5t-93 45t-85 45t-93.5 20.5q-23 0 -44 -13.5t-35 -35t-19.5 -32t-9.5 -21.5l-205 63q13 40 37 79.5t61.5 80t94 65.5t122.5 25q55 0 106 -21t84 -45.5t79.5 -45.5t93.5 -21q53 0 93.5 38.5t55.5 86.5l211 -65q-15 -42 -41 -85t-67 -86.5
t-101 -70.5t-129 -27z" />
    <glyph glyph-name="exclamdown" unicode="&#xa1;" horiz-adv-x="624" 
d="M139 1348q0 68 50 115.5t120 47.5q69 0 119.5 -48t50.5 -115q0 -66 -50.5 -114t-119.5 -48q-70 0 -120 48t-50 114zM188 1069h240l53 -1069h-346z" />
    <glyph glyph-name="cent" unicode="&#xa2;" horiz-adv-x="1318" 
d="M709 410q52 0 93 12t74.5 38.5t52.5 47t50 59.5l293 -112q-70 -117 -175.5 -197.5t-234.5 -112.5v-170h-323v177q-203 56 -336 221t-133 372t133 371.5t336 220.5v187h323v-181q132 -30 239 -112.5t177 -204.5l-295 -115q-56 79 -119.5 123.5t-154.5 44.5
q-138 0 -232 -93t-94 -241q0 -146 94.5 -240.5t231.5 -94.5z" />
    <glyph glyph-name="sterling" unicode="&#xa3;" horiz-adv-x="1310" 
d="M580 621q2 -25 2 -66q0 -200 -82 -279h712v-276h-1112v266q55 5 113.5 75.5t58.5 156.5q0 88 -8 123h-160v251h121l-16 129q-10 114 26.5 212t108.5 165.5t174 105.5t221 38q96 0 179.5 -28.5t140 -71.5t102.5 -101t71.5 -108.5t41.5 -102.5l-293 -92q-19 89 -93 158
t-149 69q-103 0 -159.5 -62t-53.5 -155q4 -80 17 -156h444v-251h-407z" />
    <glyph glyph-name="yen" unicode="&#xa5;" horiz-adv-x="1302" 
d="M874 815h277v-213h-346v-139h346v-211h-346v-252h-326v252h-325v211h325v139h-325v213h258l-414 684h375l270 -446l268 446h377z" />
    <glyph glyph-name="brokenbar" unicode="&#xa6;" horiz-adv-x="608" 
d="M178 1706h244v-809h-244v809zM178 -213v807h244v-807h-244z" />
    <glyph glyph-name="section" unicode="&#xa7;" horiz-adv-x="1128" 
d="M1018 756q0 -73 -33 -129.5t-86 -85.5q54 -34 87.5 -102.5t33.5 -131.5q0 -69 -26 -126t-69.5 -95.5t-102 -64.5t-121.5 -38t-130 -12q-49 0 -98 7t-94 21.5t-80.5 27.5t-74.5 34.5t-58.5 32.5t-50.5 31.5t-33 21.5l133 191q204 -126 348 -137q93 -7 141 20.5t48 73.5
q0 23 -9.5 40t-25.5 28.5t-47.5 21t-63 15.5t-84.5 14q-35 5 -69 12t-79 20.5t-83.5 30.5t-77 43.5t-66 58.5t-44.5 76t-17 95q0 82 48.5 141t109.5 92q-73 32 -115.5 94t-42.5 133q0 56 19 103t49 78.5t71 56t80.5 38t82 22.5t72 11.5t52.5 2.5q122 0 232.5 -36.5
t230.5 -115.5l-154 -190q-150 114 -311 114q-79 0 -117.5 -22.5t-38.5 -61.5q0 -23 19 -41.5t58.5 -32.5t70.5 -21.5t84 -18.5q7 -1 10 -2q34 -8 50.5 -12t56.5 -15t63 -20t60.5 -26t60.5 -34t51 -42t43.5 -52t26 -62t10.5 -75zM307 758q15 -41 59 -72t98 -46.5t99.5 -22.5
t77.5 -7q53 0 97 31t48 82q4 52 -51 93.5t-135 63t-162 23.5q-42 1 -76.5 -13t-54.5 -46.5t0 -85.5z" />
    <glyph glyph-name="dieresis" unicode="&#xa8;" horiz-adv-x="882" 
d="M66 1352q0 63 46 107t113 44t111.5 -43.5t44.5 -107.5q0 -65 -44.5 -107.5t-111.5 -42.5q-68 0 -113.5 43t-45.5 107zM489 1352q0 64 45 107.5t113 43.5q66 0 113 -44t47 -107q0 -64 -46.5 -107t-113.5 -43q-69 0 -113.5 42.5t-44.5 107.5z" />
    <glyph glyph-name="copyright" unicode="&#xa9;" horiz-adv-x="1759" 
d="M868 -25q-216 0 -400 103.5t-291 280.5t-107 386q0 155 63.5 297.5t170 245.5t254.5 164t310 61q130 0 252.5 -39t221 -110t172.5 -165.5t114.5 -211.5t40.5 -242q0 -156 -63.5 -298.5t-171 -246t-255.5 -164.5t-311 -61zM868 1343q-127 0 -241.5 -47t-197 -127
t-131 -191t-48.5 -233q0 -164 82 -302t224.5 -218t311.5 -80q170 0 313 80t225.5 218t82.5 302q0 163 -82.5 301t-225.5 217.5t-313 79.5zM1233 555q-61 -97 -157 -154t-206 -57q-170 0 -289.5 116.5t-119.5 282.5q0 164 119.5 279t289.5 115q118 0 214 -57t157 -158
l-151 -64q-39 54 -98 86.5t-122 32.5q-100 0 -173.5 -69t-73.5 -165q0 -97 73 -166t174 -69q61 0 118.5 29t94.5 77z" />
    <glyph glyph-name="ordfeminine" unicode="&#xaa;" horiz-adv-x="776" 
d="M506 858v33q-81 -47 -166 -47q-156 0 -246 97t-90 243q0 145 90 242.5t246 97.5q96 0 166 -47v30h194v-649h-194zM508 1184q0 68 -44 115t-108 47q-71 0 -113 -46t-42 -116q0 -69 43 -114.5t112 -45.5q64 0 108 46t44 114zM705 565h-635v195h635v-195z" />
    <glyph glyph-name="guillemotleft" unicode="&#xab;" horiz-adv-x="1443" 
d="M420 82l-320 479l322 483h338l-334 -483l336 -479h-342zM995 82l-321 479l323 483h336l-332 -483l336 -479h-342z" />
    <glyph glyph-name="logicalnot" unicode="&#xac;" horiz-adv-x="1255" 
d="M1130 276h-323v345h-717v278h1040v-623z" />
    <glyph glyph-name="uni00AD" unicode="&#xad;" horiz-adv-x="1773" 
 />
    <glyph glyph-name="registered" unicode="&#xae;" horiz-adv-x="1761" 
d="M868 -25q-216 0 -400 103.5t-291 280.5t-107 386q0 155 63.5 297.5t170 245.5t254.5 164t310 61q130 0 252.5 -39t221 -110t172.5 -165.5t114.5 -211.5t40.5 -242q0 -156 -63.5 -298.5t-171 -246t-255.5 -164.5t-311 -61zM868 1343q-127 0 -241.5 -47t-197 -127
t-131 -191t-48.5 -233q0 -164 82 -302t224.5 -218t311.5 -80q170 0 313 80t225.5 218t82.5 302q0 163 -82.5 301t-225.5 217.5t-313 79.5zM573 399v713h351q117 0 190.5 -70.5t73.5 -183.5q0 -77 -41 -138.5t-117 -98.5q119 -152 170 -222h-178q-10 12 -32.5 39.5
t-40.5 50.5t-31 41l-56 72h-139v-203h-150zM723 745h201q16 0 32 3.5t37.5 13.5t35 35t13.5 61q0 115 -118 115h-201v-228z" />
    <glyph glyph-name="macron" unicode="&#xaf;" horiz-adv-x="802" 
d="M729 1245h-674v217h674v-217z" />
    <glyph glyph-name="degree" unicode="&#xb0;" horiz-adv-x="714" 
d="M354 1210q-115 0 -198.5 80.5t-83.5 190.5q0 112 83 191t199 79t197.5 -79t81.5 -191q0 -111 -82 -191t-197 -80zM354 1563q-35 0 -60.5 -24t-25.5 -58t25.5 -57t60.5 -23t58.5 23t23.5 57t-23.5 58t-58.5 24z" />
    <glyph glyph-name="plusminus" unicode="&#xb1;" horiz-adv-x="1169" 
d="M1022 977v-275h-287v-303h-327v303h-289v275h289v307h327v-307h287zM119 0v279h903v-279h-903z" />
    <glyph glyph-name="uni00B2" unicode="&#xb2;" horiz-adv-x="847" 
d="M780 911v-192h-721v207l359 286q77 60 101 103t24 92q0 62 -40.5 90.5t-94.5 28.5q-37 0 -67 -20.5t-49 -54t-26 -48.5t-12 -31l-215 53q9 33 26.5 69.5t49.5 77.5t72 73t98 53.5t123 21.5q88 0 158.5 -27.5t113 -72.5t64.5 -99.5t22 -113.5q0 -40 -11 -79.5t-27 -72
t-44 -68t-52.5 -61t-63.5 -59t-65 -53.5t-69 -53t-65 -50h411z" />
    <glyph glyph-name="uni00B3" unicode="&#xb3;" horiz-adv-x="817" 
d="M741 1425q0 -155 -135 -215q135 -64 135 -225q0 -99 -61 -174q-55 -63 -137.5 -91t-163.5 -28q-68 0 -126.5 21t-96.5 52t-69 73t-46.5 76.5t-26.5 70.5l219 59l3 -26q30 -133 143 -133q67 0 103 28.5t36 71.5q0 83 -57 109.5t-193 31.5v172q55 2 87.5 5t68 10.5t53 20.5
t29.5 35.5t12 55.5q0 42 -36 70.5t-103 28.5q-36 0 -64.5 -14.5t-44 -38t-23 -42.5t-11.5 -38l-3 -25l-219 59q11 36 26.5 70.5t46.5 76.5t69 73t96.5 52t126.5 21q95 0 168 -26t113.5 -69.5t60.5 -93.5t20 -104z" />
    <glyph glyph-name="acute" unicode="&#xb4;" horiz-adv-x="626" 
d="M303 1540l279 -115l-306 -221h-243z" />
    <glyph glyph-name="paragraph" unicode="&#xb6;" horiz-adv-x="1159" 
d="M416 0v639q-71 5 -136.5 32.5t-119.5 76t-86.5 125t-32.5 169.5q0 457 555 457h395v-1499h-229v1356h-117v-1356h-229z" />
    <glyph glyph-name="periodcentered" unicode="&#xb7;" horiz-adv-x="438" 
d="M387 692q0 -68 -50 -116t-120 -48q-69 0 -118.5 48.5t-49.5 115.5q0 66 49.5 114t118.5 48q70 0 120 -48t50 -114z" />
    <glyph glyph-name="cedilla" unicode="&#xb8;" horiz-adv-x="489" 
d="M326 -25q58 -15 89.5 -65t26.5 -111q-3 -47 -23 -82.5t-45.5 -53.5t-58.5 -29.5t-56 -14t-46 -2.5q-55 1 -103.5 18.5t-69.5 34.5l-22 17l58 100q5 -2 18 -7.5t18.5 -8t17 -6t20.5 -5t22 -3t27 -1.5q32 0 47.5 13t13.5 34q-2 41 -70 41q-19 0 -37 -4t-40 -12.5t-25 -9.5
l-35 57l72 178h170l-33 -67q22 0 64 -11z" />
    <glyph glyph-name="uni00B9" unicode="&#xb9;" horiz-adv-x="608" 
d="M475 1702v-987h-223v618l-127 -119l-156 158l363 330h143z" />
    <glyph glyph-name="ordmasculine" unicode="&#xba;" horiz-adv-x="841" 
d="M410 838q-147 0 -252 101t-105 241q0 141 105 242.5t252 101.5q146 0 251 -101.5t105 -242.5q0 -140 -105 -241t-251 -101zM410 1333q-60 0 -102 -44.5t-42 -108.5t41 -107t103 -43q60 0 100.5 43.5t40.5 106.5q0 65 -40.5 109t-100.5 44zM727 565h-635v195h635v-195z
" />
    <glyph glyph-name="guillemotright" unicode="&#xbb;" horiz-adv-x="1443" 
d="M424 561l-330 483h334l326 -483l-324 -479h-340zM999 561q-49 72 -163 237.5t-168 245.5h336l323 -483l-321 -479h-342z" />
    <glyph glyph-name="onequarter" unicode="&#xbc;" horiz-adv-x="1861" 
d="M481 1501v-987h-221v619l-129 -117l-154 155l361 330h143zM254 0l928 1499h231l-928 -1499h-231zM1737 403v-190h-123v-213h-221v213h-475v178l530 596h166v-584h123zM1393 618l-181 -215h181v215z" />
    <glyph glyph-name="onehalf" unicode="&#xbd;" horiz-adv-x="1861" 
d="M483 1501v-987h-223v619l-129 -117l-154 155l361 330h145zM254 0l928 1499h233l-928 -1499h-233zM1786 193v-193h-723v207l360 287q76 61 100.5 103.5t24.5 90.5q0 62 -40.5 90.5t-94.5 28.5q-30 0 -56.5 -16t-42 -34t-30 -46t-17.5 -36.5t-7 -21.5l-216 54q9 33 26.5 69
t49.5 77.5t72 73.5t98 53t123 21q88 0 158.5 -27.5t113 -72.5t65 -99.5t22.5 -113.5q0 -46 -12 -89t-38.5 -83t-52.5 -72t-69 -70t-72.5 -62t-79.5 -62t-74 -57h412z" />
    <glyph glyph-name="threequarters" unicode="&#xbe;" horiz-adv-x="2039" 
d="M741 1214q0 -155 -135 -215q135 -64 135 -225q0 -95 -61 -174q-55 -63 -137 -90t-164 -27q-69 0 -128 20.5t-99 51.5t-70.5 71t-46 77t-21.5 71l219 62q3 -23 10 -46t22 -51.5t44.5 -46.5t69.5 -18q67 0 104 29t37 71q0 83 -58 111t-194 33v172q47 2 75 4t61 6.5t51 13
t34.5 21.5t23.5 32.5t7 46.5q0 43 -36.5 71t-104.5 28q-41 0 -70.5 -17t-44.5 -45t-21.5 -50t-9.5 -46l-219 59q11 36 26.5 70.5t46.5 76.5t69 73t96.5 52t126.5 21q95 0 168 -26t113.5 -69.5t60.5 -93.5t20 -104zM463 0l928 1499h231l-926 -1499h-233zM1946 403v-190h-121
v-213h-223v213h-476v178l533 596h166v-584h121zM1602 618l-181 -215h181v215z" />
    <glyph glyph-name="questiondown" unicode="&#xbf;" horiz-adv-x="1243" 
d="M512 1372q0 67 51.5 115.5t120.5 48.5t118.5 -48.5t49.5 -115.5q0 -66 -49.5 -115t-118.5 -49t-120.5 49t-51.5 115zM186 137q-118 124 -118 283q0 53 11 100.5t26.5 82t43 67.5t49.5 53.5t58.5 44.5t58 35.5t58.5 30.5q88 46 121.5 102t33.5 160h318q0 -163 -83.5 -300
t-232.5 -214q-81 -41 -109 -71t-28 -87q0 -13 2.5 -25.5t15.5 -33.5t34.5 -36t64.5 -26.5t102 -11.5q61 0 113 20t86.5 53.5t57.5 69.5t36 76l297 -94q-9 -27 -21 -55.5t-37.5 -73t-56.5 -83.5t-79 -81t-103 -71.5t-131 -48.5t-162 -19q-154 0 -260 44.5t-166 108.5z" />
    <glyph glyph-name="Agrave" unicode="&#xc0;" horiz-adv-x="1648" 
d="M948 1624h-241l-308 221l279 115zM-6 0l821 1544l821 -1544h-354l-119 229h-698l-115 -229h-356zM625 506h383l-193 391z" />
    <glyph glyph-name="Aacute" unicode="&#xc1;" horiz-adv-x="1648" 
d="M946 1960l279 -115l-305 -221h-244zM-6 0l821 1544l821 -1544h-354l-119 229h-698l-115 -229h-356zM625 506h383l-193 391z" />
    <glyph glyph-name="Acircumflex" unicode="&#xc2;" horiz-adv-x="1648" 
d="M686 1962h260l281 -338h-275l-139 131l-131 -133h-274zM-6 0l821 1544l821 -1544h-354l-119 229h-698l-115 -229h-356zM625 506h383l-193 391z" />
    <glyph glyph-name="Atilde" unicode="&#xc3;" horiz-adv-x="1648" 
d="M653 1948q45 0 81.5 -13t61 -31t46.5 -36.5t49 -31.5t57 -13t53 11.5t38 33.5t21 34t13 32q1 4 2 5l185 -57q-12 -42 -32 -84t-51.5 -85t-79 -70t-102.5 -27q-51 0 -90.5 13t-64 32t-46 37.5t-48 31.5t-58.5 13q-18 0 -33.5 -5.5t-26.5 -12t-21.5 -20.5t-15.5 -20.5
t-12 -23t-7.5 -17.5t-4.5 -14l-182 62q16 51 38 93.5t54 80.5t77 60t99 22zM-6 0l821 1544l821 -1544h-354l-119 229h-698l-115 -229h-356zM625 506h383l-193 391z" />
    <glyph glyph-name="Adieresis" unicode="&#xc4;" horiz-adv-x="1648" 
d="M444 1757q0 63 46.5 107.5t113.5 44.5t111.5 -44t44.5 -108t-44 -106.5t-112 -42.5t-114 42.5t-46 106.5zM868 1757q0 64 45 108t113 44q66 0 113 -44.5t47 -107.5q0 -64 -46.5 -106.5t-113.5 -42.5q-69 0 -113.5 42t-44.5 107zM-6 0l821 1544l821 -1544h-354l-119 229
h-698l-115 -229h-356zM625 506h383l-193 391z" />
    <glyph glyph-name="Aring" unicode="&#xc5;" horiz-adv-x="1648" 
d="M887 1407l749 -1407h-354l-119 229h-698l-115 -229h-356l749 1407q-73 24 -120.5 85t-47.5 138q0 94 71 162t169 68q99 0 170.5 -68t71.5 -162q0 -77 -47.5 -138t-122.5 -85zM815 1694q-28 0 -47.5 -19t-19.5 -45q0 -29 19.5 -47t47.5 -18q30 0 50 18t20 47
q0 26 -20.5 45t-49.5 19zM625 506h383l-193 391z" />
    <glyph glyph-name="AE" unicode="&#xc6;" horiz-adv-x="2260" 
d="M1274 1214v-329h737v-289h-737v-309h831v-287h-1157v246h-456l-168 -246h-369l1028 1499h1122v-285h-831zM948 932l-264 -406h264v406z" />
    <glyph glyph-name="Ccedilla" unicode="&#xc7;" horiz-adv-x="1656" 
d="M76 748q0 209 108.5 387.5t294.5 282.5t404 104q222 0 411.5 -112t298.5 -298l-301 -117q-71 102 -180.5 168t-228.5 66q-130 0 -241.5 -66.5t-176 -177.5t-64.5 -237t64.5 -237.5t176 -179t241.5 -67.5q119 0 228.5 67t180.5 171l301 -117q-103 -176 -276 -287.5
t-377 -124.5l-29 -57q26 0 64 -10q59 -17 90.5 -66.5t26.5 -109.5q-3 -47 -23 -82.5t-45.5 -54t-59 -29.5t-56.5 -14t-46 -3q-55 1 -103.5 18.5t-69.5 34.5l-21 17l57 100q3 -1 18 -7.5t18.5 -7.5t16.5 -5.5t21 -5.5t21.5 -2.5t27.5 -1.5q32 0 47.5 13t13.5 34q-2 41 -69 41
q-19 0 -37.5 -4.5t-40 -13t-25.5 -9.5l-35 57l70 175q-194 25 -353.5 133t-251 275.5t-91.5 359.5z" />
    <glyph glyph-name="Egrave" unicode="&#xc8;" horiz-adv-x="1433" 
d="M915 1624h-241l-307 221l278 115zM481 1217v-334h717v-283h-717v-319h811v-281h-1134v1497h1134v-280h-811z" />
    <glyph glyph-name="Eacute" unicode="&#xc9;" horiz-adv-x="1433" 
d="M811 1960l279 -115l-306 -221h-243zM481 1217v-334h717v-283h-717v-319h811v-281h-1134v1497h1134v-280h-811z" />
    <glyph glyph-name="Ecircumflex" unicode="&#xca;" horiz-adv-x="1433" 
d="M586 1962h260l280 -338h-274l-139 131l-131 -133h-275zM481 1217v-334h717v-283h-717v-319h811v-281h-1134v1497h1134v-280h-811z" />
    <glyph glyph-name="Edieresis" unicode="&#xcb;" horiz-adv-x="1433" 
d="M358 1757q0 63 46.5 107.5t113.5 44.5t111.5 -44t44.5 -108t-44 -106.5t-112 -42.5t-114 42.5t-46 106.5zM782 1757q0 64 45 108t113 44q66 0 113 -44.5t47 -107.5q0 -64 -46.5 -106.5t-113.5 -42.5q-69 0 -113.5 42t-44.5 107zM481 1217v-334h717v-283h-717v-319h811
v-281h-1134v1497h1134v-280h-811z" />
    <glyph glyph-name="Igrave" unicode="&#xcc;" horiz-adv-x="724" 
d="M494 1624h-242l-307 221l278 115zM520 0h-323v1497h323v-1497z" />
    <glyph glyph-name="Iacute" unicode="&#xcd;" horiz-adv-x="724" 
d="M489 1960l279 -115l-305 -221h-244zM520 0h-323v1497h323v-1497z" />
    <glyph glyph-name="Icircumflex" unicode="&#xce;" horiz-adv-x="724" 
d="M227 1962h260l281 -338h-274l-140 131l-131 -133h-274zM520 0h-323v1497h323v-1497z" />
    <glyph glyph-name="Idieresis" unicode="&#xcf;" horiz-adv-x="724" 
d="M-6 1757q0 63 46.5 107.5t113.5 44.5t111 -44t44 -108q0 -65 -44 -107t-111 -42q-68 0 -114 42.5t-46 106.5zM418 1757q0 64 44.5 108t112.5 44q66 0 113 -44.5t47 -107.5q0 -64 -46.5 -106.5t-113.5 -42.5q-69 0 -113 42t-44 107zM520 0h-323v1497h323v-1497z" />
    <glyph glyph-name="Eth" unicode="&#xd0;" horiz-adv-x="1736" 
d="M221 0v602h-168v279h168v616h621q331 0 547 -188q114 -99 172.5 -242t58.5 -317q0 -170 -60.5 -316.5t-170.5 -247.5q-214 -186 -547 -186h-621zM809 602h-262v-321h295q68 0 126.5 10.5t120.5 41.5t105.5 80.5t71.5 135.5t28 199t-28 199t-72 135.5t-106 80t-120.5 41
t-125.5 10.5h-295v-333h262v-279z" />
    <glyph glyph-name="Ntilde" unicode="&#xd1;" horiz-adv-x="1695" 
d="M674 1948q45 0 81.5 -13t61 -31t46.5 -36.5t49 -31.5t57 -13t53 11.5t38 33.5t21 34t13 32q1 4 2 5l184 -57q-12 -42 -31.5 -83.5t-51 -85t-79 -70.5t-102.5 -27q-51 0 -90.5 13t-64 32t-46 37.5t-48 31.5t-58.5 13q-18 0 -33.5 -5.5t-26.5 -12t-21.5 -20.5t-15.5 -20.5
t-12 -23t-7.5 -17.5t-4.5 -14l-182 62q16 51 38 93.5t54 80.5t77 60t99 22zM481 852v-852h-321v1544l1032 -913v864h324v-1542z" />
    <glyph glyph-name="Ograve" unicode="&#xd2;" horiz-adv-x="1802" 
d="M1098 1624h-242l-307 221l278 115zM889 -29q-218 0 -403.5 104.5t-293.5 284t-108 390.5q0 210 108 388.5t293.5 283t403.5 104.5q164 0 314 -62t258.5 -166t172.5 -247.5t64 -300.5q0 -211 -108.5 -390.5t-295 -284t-405.5 -104.5zM889 1231q-130 0 -242 -66.5
t-176.5 -177.5t-64.5 -237q0 -127 64.5 -239t176.5 -179.5t242 -67.5q131 0 243 67.5t176 179.5t64 239q0 126 -64 237t-176 177.5t-243 66.5z" />
    <glyph glyph-name="Oacute" unicode="&#xd3;" horiz-adv-x="1802" 
d="M999 1960l279 -115l-305 -221h-244zM889 -29q-218 0 -403.5 104.5t-293.5 284t-108 390.5q0 210 108 388.5t293.5 283t403.5 104.5q164 0 314 -62t258.5 -166t172.5 -247.5t64 -300.5q0 -211 -108.5 -390.5t-295 -284t-405.5 -104.5zM889 1231q-130 0 -242 -66.5
t-176.5 -177.5t-64.5 -237q0 -127 64.5 -239t176.5 -179.5t242 -67.5q131 0 243 67.5t176 179.5t64 239q0 126 -64 237t-176 177.5t-243 66.5z" />
    <glyph glyph-name="Ocircumflex" unicode="&#xd4;" horiz-adv-x="1802" 
d="M741 1962h260l281 -338h-274l-140 131l-131 -133h-274zM889 -29q-218 0 -403.5 104.5t-293.5 284t-108 390.5q0 210 108 388.5t293.5 283t403.5 104.5q164 0 314 -62t258.5 -166t172.5 -247.5t64 -300.5q0 -211 -108.5 -390.5t-295 -284t-405.5 -104.5zM889 1231
q-130 0 -242 -66.5t-176.5 -177.5t-64.5 -237q0 -127 64.5 -239t176.5 -179.5t242 -67.5q131 0 243 67.5t176 179.5t64 239q0 126 -64 237t-176 177.5t-243 66.5z" />
    <glyph glyph-name="Otilde" unicode="&#xd5;" horiz-adv-x="1802" 
d="M713 1948q45 0 81.5 -13t61 -31t46.5 -36.5t49 -31.5t57 -13t53 11.5t38 33.5t21 34t13 32q1 4 2 5l184 -57q-12 -42 -31.5 -83.5t-51 -85t-79 -70.5t-102.5 -27q-51 0 -90.5 13t-64 32t-46 37.5t-48 31.5t-58.5 13q-18 0 -33.5 -5.5t-26.5 -12t-21.5 -20.5t-15.5 -20.5
t-12 -23t-7.5 -17.5t-4.5 -14l-183 62q16 51 38 93.5t54 80.5t77.5 60t99.5 22zM889 -29q-218 0 -403.5 104.5t-293.5 284t-108 390.5q0 210 108 388.5t293.5 283t403.5 104.5q164 0 314 -62t258.5 -166t172.5 -247.5t64 -300.5q0 -211 -108.5 -390.5t-295 -284
t-405.5 -104.5zM889 1231q-130 0 -242 -66.5t-176.5 -177.5t-64.5 -237q0 -127 64.5 -239t176.5 -179.5t242 -67.5q131 0 243 67.5t176 179.5t64 239q0 126 -64 237t-176 177.5t-243 66.5z" />
    <glyph glyph-name="Odieresis" unicode="&#xd6;" horiz-adv-x="1802" 
d="M510 1757q0 63 46.5 107.5t113.5 44.5t111 -44t44 -108q0 -65 -44 -107t-111 -42q-68 0 -114 42.5t-46 106.5zM934 1757q0 64 45 108t113 44q66 0 112.5 -44.5t46.5 -107.5q0 -64 -46 -106.5t-113 -42.5q-69 0 -113.5 42t-44.5 107zM889 -29q-218 0 -403.5 104.5
t-293.5 284t-108 390.5q0 210 108 388.5t293.5 283t403.5 104.5q164 0 314 -62t258.5 -166t172.5 -247.5t64 -300.5q0 -211 -108.5 -390.5t-295 -284t-405.5 -104.5zM889 1231q-130 0 -242 -66.5t-176.5 -177.5t-64.5 -237q0 -127 64.5 -239t176.5 -179.5t242 -67.5
q131 0 243 67.5t176 179.5t64 239q0 126 -64 237t-176 177.5t-243 66.5z" />
    <glyph glyph-name="multiply" unicode="&#xd7;" horiz-adv-x="1073" 
d="M1020 877l-270 -259l268 -260l-225 -215l-269 260l-266 -258l-223 217l268 256l-268 256l223 216l266 -254l271 256z" />
    <glyph glyph-name="Oslash" unicode="&#xd8;" horiz-adv-x="1802" 
d="M319 -51l-182 151l135 148q-188 216 -188 502q0 210 108 388.5t293.5 283t403.5 104.5q238 0 440 -127l125 143l184 -153l-131 -144q191 -216 191 -495q0 -211 -108.5 -390.5t-295 -284t-405.5 -104.5q-235 0 -434 121zM889 1231q-130 0 -242 -66.5t-176.5 -177.5
t-64.5 -237q0 -137 81 -263l631 684q-110 60 -229 60zM889 264q131 0 243 67.5t176 179.5t64 239q0 129 -80 258l-630 -686q120 -58 227 -58z" />
    <glyph glyph-name="Ugrave" unicode="&#xd9;" horiz-adv-x="1679" 
d="M1008 1624h-242l-307 221l278 115zM831 -27q-306 0 -488.5 172.5t-182.5 460.5v889h323v-889q0 -81 24 -145t60.5 -102t84.5 -63.5t92 -34.5t87 -9q42 0 85 9t91 34.5t84.5 63.5t60.5 102t24 145v889h323v-889q0 -288 -182 -460.5t-486 -172.5z" />
    <glyph glyph-name="Uacute" unicode="&#xda;" horiz-adv-x="1679" 
d="M870 1960l279 -115l-305 -221h-244zM831 -27q-306 0 -488.5 172.5t-182.5 460.5v889h323v-889q0 -81 24 -145t60.5 -102t84.5 -63.5t92 -34.5t87 -9q42 0 85 9t91 34.5t84.5 63.5t60.5 102t24 145v889h323v-889q0 -288 -182 -460.5t-486 -172.5z" />
    <glyph glyph-name="Ucircumflex" unicode="&#xdb;" horiz-adv-x="1679" 
d="M694 1962h260l281 -338h-274l-140 131l-131 -133h-274zM831 -27q-306 0 -488.5 172.5t-182.5 460.5v889h323v-889q0 -81 24 -145t60.5 -102t84.5 -63.5t92 -34.5t87 -9q42 0 85 9t91 34.5t84.5 63.5t60.5 102t24 145v889h323v-889q0 -288 -182 -460.5t-486 -172.5z" />
    <glyph glyph-name="Udieresis" unicode="&#xdc;" horiz-adv-x="1679" 
d="M457 1757q0 63 46 107.5t113 44.5t111.5 -44t44.5 -108t-44 -106.5t-112 -42.5t-113.5 42.5t-45.5 106.5zM881 1757q0 64 44.5 108t112.5 44q66 0 113 -44.5t47 -107.5q0 -64 -46.5 -106.5t-113.5 -42.5q-69 0 -113 42t-44 107zM831 -27q-306 0 -488.5 172.5
t-182.5 460.5v889h323v-889q0 -81 24 -145t60.5 -102t84.5 -63.5t92 -34.5t87 -9q42 0 85 9t91 34.5t84.5 63.5t60.5 102t24 145v889h323v-889q0 -288 -182 -460.5t-486 -172.5z" />
    <glyph glyph-name="Yacute" unicode="&#xdd;" horiz-adv-x="1503" 
d="M801 1960l278 -115l-305 -221h-244zM1503 1495l-594 -928v-567h-323v567l-590 928h379l373 -604l376 604h379z" />
    <glyph glyph-name="Thorn" unicode="&#xde;" horiz-adv-x="1513" 
d="M854 1286q151 0 280 -72.5t204 -196t75 -267.5q0 -109 -44.5 -208t-119.5 -171t-178.5 -115t-216.5 -43h-371v-213h-323v1497h323v-211h371zM854 494q94 0 163.5 79.5t69.5 176.5q0 95 -69.5 174.5t-163.5 79.5h-371v-510h371z" />
    <glyph glyph-name="germandbls" unicode="&#xdf;" horiz-adv-x="1431" 
d="M1163 1081q0 -76 -48 -153t-124 -113q57 -15 109.5 -42.5t103 -73t81 -117.5t30.5 -160q0 -220 -136 -333.5t-382 -113.5q-40 0 -118.5 8.5t-129.5 22.5v262q114 -18 182 -18q134 0 207.5 48t73.5 148q0 38 -16.5 67.5t-39 48t-62.5 32t-71 19.5t-81.5 9.5t-77 4
t-72.5 0.5h-12v295q70 0 123.5 13t82 31t46 42t22 41.5t4.5 33.5q0 150 -188 150q-56 0 -96 -15.5t-58 -38t-28 -45t-10 -38.5l-1 -15l2 -1081h-309v1067q0 178 115 307q142 142 385 142q73 0 141 -14t133 -47.5t113 -82.5t77 -124t29 -167z" />
    <glyph glyph-name="agrave" unicode="&#xe0;" 
d="M907 1251h-241l-308 222l279 114zM995 0v113q-39 -53 -134.5 -95.5t-207.5 -42.5q-173 0 -303 80t-196 212t-66 296t66 296t196 212t303 80q117 0 206.5 -40t135.5 -101v116h303v-1126h-303zM1008 563q0 141 -84.5 230.5t-225.5 89.5q-143 0 -226 -89.5t-83 -230.5
q0 -136 85.5 -226.5t223.5 -90.5q143 0 226.5 85t83.5 232z" />
    <glyph glyph-name="aacute" unicode="&#xe1;" 
d="M805 1589l278 -114l-305 -222h-243zM995 0v113q-39 -53 -134.5 -95.5t-207.5 -42.5q-173 0 -303 80t-196 212t-66 296t66 296t196 212t303 80q117 0 206.5 -40t135.5 -101v116h303v-1126h-303zM1008 563q0 141 -84.5 230.5t-225.5 89.5q-143 0 -226 -89.5t-83 -230.5
q0 -136 85.5 -226.5t223.5 -90.5q143 0 226.5 85t83.5 232z" />
    <glyph glyph-name="acircumflex" unicode="&#xe2;" 
d="M621 1593h260l280 -338h-274l-139 131l-132 -133h-274zM995 0v113q-39 -53 -134.5 -95.5t-207.5 -42.5q-173 0 -303 80t-196 212t-66 296t66 296t196 212t303 80q117 0 206.5 -40t135.5 -101v116h303v-1126h-303zM1008 563q0 141 -84.5 230.5t-225.5 89.5
q-143 0 -226 -89.5t-83 -230.5q0 -136 85.5 -226.5t223.5 -90.5q143 0 226.5 85t83.5 232z" />
    <glyph glyph-name="atilde" unicode="&#xe3;" 
d="M565 1577q45 0 81.5 -13t61 -31.5t46.5 -36.5t49 -31t57 -13t53 11.5t38 34t21 34t13 32.5q1 3 2 5l184 -58q-12 -42 -31.5 -83.5t-51 -85t-79 -70.5t-102.5 -27q-51 0 -90.5 13t-64 31.5t-46 37.5t-48 32t-58.5 13q-30 0 -53 -12.5t-37.5 -36.5t-19.5 -34t-11 -29
l-182 61q16 51 38 93.5t54 80.5t77 60t99 22zM995 0v113q-39 -53 -134.5 -95.5t-207.5 -42.5q-173 0 -303 80t-196 212t-66 296t66 296t196 212t303 80q117 0 206.5 -40t135.5 -101v116h303v-1126h-303zM1008 563q0 141 -84.5 230.5t-225.5 89.5q-143 0 -226 -89.5
t-83 -230.5q0 -136 85.5 -226.5t223.5 -90.5q143 0 226.5 85t83.5 232z" />
    <glyph glyph-name="adieresis" unicode="&#xe4;" 
d="M395 1399q0 63 46.5 107t113.5 44t111.5 -43.5t44.5 -107.5q0 -65 -44.5 -107.5t-111.5 -42.5q-68 0 -114 43t-46 107zM819 1399q0 64 45 107.5t113 43.5q66 0 113 -44t47 -107q0 -64 -46.5 -107t-113.5 -43q-69 0 -113.5 42.5t-44.5 107.5zM995 0v113
q-39 -53 -134.5 -95.5t-207.5 -42.5q-173 0 -303 80t-196 212t-66 296t66 296t196 212t303 80q117 0 206.5 -40t135.5 -101v116h303v-1126h-303zM1008 563q0 141 -84.5 230.5t-225.5 89.5q-143 0 -226 -89.5t-83 -230.5q0 -136 85.5 -226.5t223.5 -90.5q143 0 226.5 85
t83.5 232z" />
    <glyph glyph-name="aring" unicode="&#xe5;" 
d="M733 1243q-98 0 -168.5 68.5t-70.5 165.5q0 94 70.5 161.5t168.5 67.5q100 0 171 -67.5t71 -161.5q0 -97 -71 -165.5t-171 -68.5zM733 1540q-28 0 -47.5 -18.5t-19.5 -44.5q0 -29 19.5 -47.5t47.5 -18.5q30 0 50 18.5t20 47.5q0 26 -20.5 44.5t-49.5 18.5zM995 0v113
q-39 -53 -134.5 -95.5t-207.5 -42.5q-173 0 -303 80t-196 212t-66 296t66 296t196 212t303 80q117 0 206.5 -40t135.5 -101v116h303v-1126h-303zM1008 563q0 141 -84.5 230.5t-225.5 89.5q-143 0 -226 -89.5t-83 -230.5q0 -136 85.5 -226.5t223.5 -90.5q143 0 226.5 85
t83.5 232z" />
    <glyph glyph-name="ae" unicode="&#xe6;" horiz-adv-x="2150" 
d="M1454 -29q-111 0 -231 41.5t-209 130.5q-45 -46 -99 -78.5t-101.5 -49.5t-108 -26.5t-101.5 -11.5t-98 -2q-16 0 -41 2.5t-66.5 12t-82 24.5t-83.5 43.5t-75 65.5t-53 94t-21 125q0 70 21.5 128t56.5 97.5t84 69.5t97.5 47t104 27.5t98 14t83.5 3.5q115 0 207 -14
q-16 80 -66.5 117.5t-173.5 37.5q-169 0 -338 -104l-135 231q84 52 227.5 101t298.5 49q263 0 385 -152q89 78 203 114t217 36q110 0 212.5 -37t185.5 -106t134.5 -177t55.5 -239q0 -38 -1.5 -73.5t-2.5 -52.5l-2 -16h-889q10 -52 40.5 -91.5t65.5 -60t78 -33.5t71 -16
t52 -3q59 0 110 13.5t87 38.5t54 41t38 38l237 -138q-193 -262 -526 -262zM1454 877q-124 0 -201 -58t-98 -141h563q-20 80 -88.5 139.5t-175.5 59.5zM584 244q56 0 105 13.5t89.5 40.5t60 75t9.5 110q-77 9 -205 9q-27 0 -53 -2t-63 -10t-64 -21.5t-46.5 -39.5t-19.5 -61
q0 -38 24 -64t61.5 -35.5t59.5 -12t42 -2.5z" />
    <glyph glyph-name="ccedilla" unicode="&#xe7;" horiz-adv-x="1331" 
d="M88 559q0 159 82.5 294t223.5 213.5t306 78.5q179 0 323 -85t230 -243l-276 -108q-101 168 -277 168q-133 0 -220 -90.5t-87 -227.5q0 -138 87.5 -227.5t221.5 -89.5q184 0 285 164l260 -103q-146 -300 -475 -330l-24 -51q25 0 63 -10q59 -17 90.5 -66.5t26.5 -109.5
q-3 -47 -23 -82.5t-45.5 -53.5t-59 -29.5t-56.5 -14t-46 -2.5q-34 1 -67 8t-55 17t-39 20t-25 17l-8 7l57 101q5 -2 18 -7.5t18.5 -8t17 -6t20.5 -5t22 -3t27 -1.5q32 0 47.5 13t13.5 34q-2 41 -69 41q-19 0 -37.5 -4.5t-40 -13t-25.5 -9.5l-34 58l67 168q-220 33 -369 197
t-149 382z" />
    <glyph glyph-name="egrave" unicode="&#xe8;" horiz-adv-x="1394" 
d="M883 1251h-242l-307 222l278 114zM700 -29q-72 0 -148.5 16t-161 58.5t-150.5 106t-109 169.5t-43 238t44 238t110.5 169t151.5 105t160.5 58t145.5 16q110 0 212.5 -37t185.5 -106t134.5 -177t55.5 -239q0 -38 -1.5 -73.5t-2.5 -52.5l-2 -16h-889q10 -52 40.5 -91.5
t65.5 -60t78 -33.5t71 -16t52 -3q59 0 110 13.5t87 38.5t54 41t38 38l238 -138q-193 -262 -527 -262zM698 877q-127 0 -207.5 -62.5t-89.5 -152.5h564q-10 83 -84 149t-183 66z" />
    <glyph glyph-name="eacute" unicode="&#xe9;" horiz-adv-x="1394" 
d="M805 1589l278 -114l-305 -222h-243zM700 -29q-72 0 -148.5 16t-161 58.5t-150.5 106t-109 169.5t-43 238t44 238t110.5 169t151.5 105t160.5 58t145.5 16q110 0 212.5 -37t185.5 -106t134.5 -177t55.5 -239q0 -38 -1.5 -73.5t-2.5 -52.5l-2 -16h-889q10 -52 40.5 -91.5
t65.5 -60t78 -33.5t71 -16t52 -3q59 0 110 13.5t87 38.5t54 41t38 38l238 -138q-193 -262 -527 -262zM698 877q-127 0 -207.5 -62.5t-89.5 -152.5h564q-10 83 -84 149t-183 66z" />
    <glyph glyph-name="ecircumflex" unicode="&#xea;" horiz-adv-x="1394" 
d="M567 1593h260l281 -338h-274l-140 131l-131 -133h-274zM700 -29q-72 0 -148.5 16t-161 58.5t-150.5 106t-109 169.5t-43 238t44 238t110.5 169t151.5 105t160.5 58t145.5 16q110 0 212.5 -37t185.5 -106t134.5 -177t55.5 -239q0 -38 -1.5 -73.5t-2.5 -52.5l-2 -16h-889
q10 -52 40.5 -91.5t65.5 -60t78 -33.5t71 -16t52 -3q59 0 110 13.5t87 38.5t54 41t38 38l238 -138q-193 -262 -527 -262zM698 877q-127 0 -207.5 -62.5t-89.5 -152.5h564q-10 83 -84 149t-183 66z" />
    <glyph glyph-name="edieresis" unicode="&#xeb;" horiz-adv-x="1394" 
d="M334 1399q0 63 46.5 107t113.5 44t111 -43.5t44 -107.5q0 -65 -44 -107.5t-111 -42.5q-68 0 -114 43t-46 107zM758 1399q0 64 44.5 107.5t112.5 43.5q66 0 113 -44t47 -107q0 -64 -46.5 -107t-113.5 -43q-69 0 -113 42.5t-44 107.5zM700 -29q-72 0 -148.5 16t-161 58.5
t-150.5 106t-109 169.5t-43 238t44 238t110.5 169t151.5 105t160.5 58t145.5 16q110 0 212.5 -37t185.5 -106t134.5 -177t55.5 -239q0 -38 -1.5 -73.5t-2.5 -52.5l-2 -16h-889q10 -52 40.5 -91.5t65.5 -60t78 -33.5t71 -16t52 -3q59 0 110 13.5t87 38.5t54 41t38 38
l238 -138q-193 -262 -527 -262zM698 877q-127 0 -207.5 -62.5t-89.5 -152.5h564q-10 83 -84 149t-183 66z" />
    <glyph glyph-name="igrave" unicode="&#xec;" horiz-adv-x="624" 
d="M449 1251h-242l-307 222l278 114zM156 0v1124h307v-1124h-307z" />
    <glyph glyph-name="iacute" unicode="&#xed;" horiz-adv-x="645" 
d="M442 1589l279 -114l-305 -222h-244zM156 0v1124h307v-1124h-307z" />
    <glyph glyph-name="icircumflex" unicode="&#xee;" horiz-adv-x="624" 
d="M176 1593h260l281 -338h-275l-139 131l-131 -133h-274zM156 0v1124h307v-1124h-307z" />
    <glyph glyph-name="idieresis" unicode="&#xef;" horiz-adv-x="624" 
d="M-57 1399q0 63 46 107t113 44t111.5 -43.5t44.5 -107.5q0 -65 -44.5 -107.5t-111.5 -42.5q-68 0 -113.5 43t-45.5 107zM367 1399q0 64 44.5 107.5t112.5 43.5q66 0 113 -44t47 -107q0 -64 -46.5 -107t-113.5 -43q-69 0 -113 42.5t-44 107.5zM156 0v1124h307v-1124h-307z
" />
    <glyph glyph-name="eth" unicode="&#xf0;" horiz-adv-x="1503" 
d="M973 1315q134 -132 225.5 -330.5t95.5 -415.5q0 -131 -38.5 -239.5t-113.5 -188t-192 -124t-266 -44.5q-79 0 -155.5 17.5t-152.5 59t-133 103.5t-92.5 159t-35.5 218q0 138 66 255t187 188t271 71q129 0 227 -43q-69 120 -180 207l-252 -96l-74 172l150 55l-158 93
l281 139q33 -20 96.5 -66t77.5 -55l205 80l71 -172zM705 246q129 0 211.5 75.5t82.5 198.5q0 124 -82.5 199.5t-211.5 75.5q-139 0 -217 -75t-78 -200q0 -124 86 -199t209 -75z" />
    <glyph glyph-name="ntilde" unicode="&#xf1;" horiz-adv-x="1347" 
d="M487 1577q45 0 81.5 -13t61 -31.5t46.5 -36.5t49 -31t57 -13t53 11.5t38 34t21 34t13 32.5q1 3 2 5l185 -58q-12 -42 -32 -84t-51.5 -85t-79 -70t-102.5 -27q-51 0 -90.5 13t-64 31.5t-46 37.5t-48 32t-58.5 13q-30 0 -53 -12.5t-37.5 -36.5t-19.5 -34t-11 -29l-182 61
q16 51 38 93.5t54 80.5t77 60t99 22zM745 1147q235 0 340 -125t105 -356v-666h-313v666q0 227 -218 227q-28 0 -55.5 -7t-58 -27t-53 -51.5t-36.5 -86.5t-12 -125v-596h-305v1126h305v-100q55 55 139.5 88t161.5 33z" />
    <glyph glyph-name="ograve" unicode="&#xf2;" horiz-adv-x="1421" 
d="M891 1251h-242l-307 222l279 114zM698 -27q-165 0 -305.5 78.5t-222.5 214t-82 295.5q0 158 82 293t222.5 214t305.5 79q124 0 237.5 -46.5t196.5 -125t132 -187.5t49 -227q0 -160 -83 -295.5t-224.5 -214t-307.5 -78.5zM698 879q-129 0 -219 -92.5t-90 -225.5
q0 -139 88 -230t221 -91q131 0 220.5 92.5t89.5 228.5q0 135 -89.5 226.5t-220.5 91.5z" />
    <glyph glyph-name="oacute" unicode="&#xf3;" horiz-adv-x="1421" 
d="M786 1589l279 -114l-305 -222h-244zM698 -27q-165 0 -305.5 78.5t-222.5 214t-82 295.5q0 158 82 293t222.5 214t305.5 79q124 0 237.5 -46.5t196.5 -125t132 -187.5t49 -227q0 -160 -83 -295.5t-224.5 -214t-307.5 -78.5zM698 879q-129 0 -219 -92.5t-90 -225.5
q0 -139 88 -230t221 -91q131 0 220.5 92.5t89.5 228.5q0 135 -89.5 226.5t-220.5 91.5z" />
    <glyph glyph-name="ocircumflex" unicode="&#xf4;" horiz-adv-x="1421" 
d="M567 1593h260l281 -338h-274l-140 131l-131 -133h-274zM698 -27q-165 0 -305.5 78.5t-222.5 214t-82 295.5q0 158 82 293t222.5 214t305.5 79q124 0 237.5 -46.5t196.5 -125t132 -187.5t49 -227q0 -160 -83 -295.5t-224.5 -214t-307.5 -78.5zM698 879q-129 0 -219 -92.5
t-90 -225.5q0 -139 88 -230t221 -91q131 0 220.5 92.5t89.5 228.5q0 135 -89.5 226.5t-220.5 91.5z" />
    <glyph glyph-name="otilde" unicode="&#xf5;" horiz-adv-x="1421" 
d="M510 1577q45 0 81.5 -13t61 -31.5t46.5 -36.5t49 -31t57 -13t53 11.5t38 34t21 34t13 32.5q1 3 2 5l184 -58q-12 -42 -31.5 -83.5t-51 -85t-79 -70.5t-102.5 -27q-51 0 -90.5 13t-64 31.5t-46 37.5t-48 32t-58.5 13q-30 0 -53 -12.5t-37.5 -36.5t-19.5 -34t-11 -29
l-182 61q16 51 38 93.5t54 80.5t77 60t99 22zM698 -27q-165 0 -305.5 78.5t-222.5 214t-82 295.5q0 158 82 293t222.5 214t305.5 79q124 0 237.5 -46.5t196.5 -125t132 -187.5t49 -227q0 -160 -83 -295.5t-224.5 -214t-307.5 -78.5zM698 879q-129 0 -219 -92.5t-90 -225.5
q0 -139 88 -230t221 -91q131 0 220.5 92.5t89.5 228.5q0 135 -89.5 226.5t-220.5 91.5z" />
    <glyph glyph-name="odieresis" unicode="&#xf6;" horiz-adv-x="1421" 
d="M330 1399q0 63 46 107t113 44t111.5 -43.5t44.5 -107.5q0 -65 -44.5 -107.5t-111.5 -42.5q-68 0 -113.5 43t-45.5 107zM754 1399q0 64 44.5 107.5t112.5 43.5q66 0 113 -44t47 -107q0 -64 -46.5 -107t-113.5 -43q-69 0 -113 42.5t-44 107.5zM698 -27q-165 0 -305.5 78.5
t-222.5 214t-82 295.5q0 158 82 293t222.5 214t305.5 79q124 0 237.5 -46.5t196.5 -125t132 -187.5t49 -227q0 -160 -83 -295.5t-224.5 -214t-307.5 -78.5zM698 879q-129 0 -219 -92.5t-90 -225.5q0 -139 88 -230t221 -91q131 0 220.5 92.5t89.5 228.5q0 135 -89.5 226.5
t-220.5 91.5z" />
    <glyph glyph-name="divide" unicode="&#xf7;" horiz-adv-x="1302" 
d="M805 1106q0 -64 -47.5 -111t-114.5 -47t-115.5 47.5t-48.5 110.5q0 64 48 110t116 46q67 0 114.5 -45.5t47.5 -110.5zM1194 500h-1102v278h1102v-278zM805 178q0 -65 -47.5 -110t-114.5 -45q-68 0 -116 45.5t-48 109.5q0 63 48.5 108.5t115.5 45.5t114.5 -45.5
t47.5 -108.5z" />
    <glyph glyph-name="oslash" unicode="&#xf8;" horiz-adv-x="1421" 
d="M293 -41l-164 154l84 90q-125 157 -125 358q0 158 82 293t222.5 214t305.5 79q172 0 322 -88l90 94l164 -154l-84 -90q123 -155 123 -348q0 -160 -83 -295.5t-224.5 -214t-307.5 -78.5q-171 0 -313 82zM698 879q-129 0 -219 -92.5t-90 -225.5q0 -75 29 -141l407 432
q-66 27 -127 27zM698 240q131 0 220.5 92.5t89.5 228.5q0 63 -27 129l-403 -428q58 -22 120 -22z" />
    <glyph glyph-name="ugrave" unicode="&#xf9;" horiz-adv-x="1347" 
d="M840 1251h-242l-307 222l278 114zM582 -25q-443 0 -443 482v665h310v-665q0 -120 60.5 -173t158.5 -53q37 0 72 12.5t70 42.5t55.5 92t17.5 148v596h307v-1122h-307v96q-56 -57 -134 -89t-167 -32z" />
    <glyph glyph-name="uacute" unicode="&#xfa;" horiz-adv-x="1347" 
d="M766 1589l278 -114l-305 -222h-243zM582 -25q-443 0 -443 482v665h310v-665q0 -120 60.5 -173t158.5 -53q37 0 72 12.5t70 42.5t55.5 92t17.5 148v596h307v-1122h-307v96q-56 -57 -134 -89t-167 -32z" />
    <glyph glyph-name="ucircumflex" unicode="&#xfb;" horiz-adv-x="1347" 
d="M532 1593h261l280 -338h-274l-140 131l-131 -133h-274zM582 -25q-443 0 -443 482v665h310v-665q0 -120 60.5 -173t158.5 -53q37 0 72 12.5t70 42.5t55.5 92t17.5 148v596h307v-1122h-307v96q-56 -57 -134 -89t-167 -32z" />
    <glyph glyph-name="udieresis" unicode="&#xfc;" horiz-adv-x="1347" 
d="M293 1399q0 63 46.5 107t113.5 44t111 -43.5t44 -107.5q0 -65 -44 -107.5t-111 -42.5q-68 0 -114 43t-46 107zM717 1399q0 64 44.5 107.5t112.5 43.5q66 0 113 -44t47 -107q0 -64 -46.5 -107t-113.5 -43q-69 0 -113 42.5t-44 107.5zM582 -25q-443 0 -443 482v665h310
v-665q0 -120 60.5 -173t158.5 -53q37 0 72 12.5t70 42.5t55.5 92t17.5 148v596h307v-1122h-307v96q-56 -57 -134 -89t-167 -32z" />
    <glyph glyph-name="yacute" unicode="&#xfd;" horiz-adv-x="1316" 
d="M766 1589l278 -114l-305 -222h-243zM645 -422h-338l195 463l-484 1081h355l284 -716l263 716h354z" />
    <glyph glyph-name="thorn" unicode="&#xfe;" 
d="M139 -365v1913h305v-514q142 117 330 117q179 0 312 -80t199.5 -212t66.5 -296t-66.5 -296t-199.5 -212t-312 -80q-204 0 -330 117v-457h-305zM432 563q0 -135 89 -226t220 -91q138 0 223 90.5t85 226.5q0 141 -82.5 230.5t-225.5 89.5q-131 0 -220 -92t-89 -228z" />
    <glyph glyph-name="ydieresis" unicode="&#xff;" horiz-adv-x="1316" 
d="M285 1399q0 63 46 107t113 44t111.5 -43.5t44.5 -107.5q0 -65 -44.5 -107.5t-111.5 -42.5q-68 0 -113.5 43t-45.5 107zM709 1399q0 64 44.5 107.5t112.5 43.5q66 0 113 -44t47 -107q0 -64 -46.5 -107t-113.5 -43q-69 0 -113 42.5t-44 107.5zM645 -422h-338l195 463
l-484 1081h355l284 -716l263 716h354z" />
    <glyph glyph-name="Amacron" unicode="&#x100;" horiz-adv-x="1648" 
d="M1155 1626h-674v217h674v-217zM-6 0l821 1544l821 -1544h-354l-119 229h-698l-115 -229h-356zM625 506h383l-193 391z" />
    <glyph glyph-name="amacron" unicode="&#x101;" 
d="M1077 1255h-674v218h674v-218zM995 0v113q-39 -53 -134.5 -95.5t-207.5 -42.5q-173 0 -303 80t-196 212t-66 296t66 296t196 212t303 80q117 0 206.5 -40t135.5 -101v116h303v-1126h-303zM1008 563q0 141 -84.5 230.5t-225.5 89.5q-143 0 -226 -89.5t-83 -230.5
q0 -136 85.5 -226.5t223.5 -90.5q143 0 226.5 85t83.5 232z" />
    <glyph glyph-name="Abreve" unicode="&#x102;" horiz-adv-x="1648" 
d="M1219 1948q-25 -154 -133 -246t-265 -92t-267.5 93t-135.5 245h221q19 -66 68.5 -96.5t113.5 -30.5q71 0 115 35t63 92h220zM-6 0l821 1544l821 -1544h-354l-119 229h-698l-115 -229h-356zM625 506h383l-193 391z" />
    <glyph glyph-name="abreve" unicode="&#x103;" 
d="M1139 1585q-25 -154 -133 -246t-265 -92t-267.5 93t-135.5 245h221q19 -66 68.5 -96.5t113.5 -30.5q71 0 115.5 35t63.5 92h219zM995 0v113q-39 -53 -134.5 -95.5t-207.5 -42.5q-173 0 -303 80t-196 212t-66 296t66 296t196 212t303 80q117 0 206.5 -40t135.5 -101v116
h303v-1126h-303zM1008 563q0 141 -84.5 230.5t-225.5 89.5q-143 0 -226 -89.5t-83 -230.5q0 -136 85.5 -226.5t223.5 -90.5q143 0 226.5 85t83.5 232z" />
    <glyph glyph-name="Aogonek" unicode="&#x104;" horiz-adv-x="1648" 
d="M1686 -137l92 -195q-5 -3 -23.5 -10t-54 -18t-64.5 -15q-20 -4 -65 -4q-110 0 -195 64q-48 39 -78 99.5t-30 123.5q0 51 14 92l-119 229h-698l-115 -229h-356l821 1544l821 -1544h-14q-51 0 -93.5 -26t-39.5 -70q3 -41 29.5 -58.5t62 -12.5t62.5 13t43 17zM625 506h383
l-193 391z" />
    <glyph glyph-name="aogonek" unicode="&#x105;" 
d="M1374 -137l92 -195q-6 -3 -23.5 -10t-53 -18t-64.5 -15q-20 -4 -65 -4q-53 0 -108.5 18t-92.5 46q-90 73 -90 184q0 75 26 131v92q-56 -51 -140.5 -84t-186.5 -33q-180 0 -313.5 80t-200 212t-66.5 296t66.5 296t200 212t313.5 80q204 0 327 -117v92h303v-1126
q-50 0 -86.5 -25.5t-33.5 -70.5q3 -41 29 -58.5t61.5 -12.5t62.5 13t43 17zM698 246q131 0 220.5 91t89.5 226q0 136 -89.5 228t-220.5 92q-143 0 -226 -89.5t-83 -230.5q0 -136 85.5 -226.5t223.5 -90.5z" />
    <glyph glyph-name="Cacute" unicode="&#x106;" horiz-adv-x="1656" 
d="M926 1960l278 -115l-305 -221h-244zM1593 385q-109 -189 -298.5 -301.5t-411.5 -112.5q-164 0 -313 61.5t-257.5 166t-172.5 248t-64 301.5q0 209 108.5 387.5t294.5 282.5t404 104q222 0 411.5 -112t298.5 -298l-301 -117q-71 102 -180.5 168t-228.5 66
q-130 0 -241.5 -66.5t-176 -177.5t-64.5 -237t64.5 -237.5t176 -179t241.5 -67.5q119 0 228.5 67t180.5 171z" />
    <glyph glyph-name="cacute" unicode="&#x107;" horiz-adv-x="1331" 
d="M780 1589l279 -114l-305 -222h-244zM702 -29q-165 0 -306.5 79t-224.5 214.5t-83 294.5t82.5 294t223.5 213.5t306 78.5q179 0 323 -85t230 -243l-276 -108q-101 168 -277 168q-133 0 -220 -90.5t-87 -227.5q0 -138 87.5 -227.5t221.5 -89.5q184 0 285 164l260 -103
q-164 -332 -545 -332z" />
    <glyph glyph-name="Ccaron" unicode="&#x10c;" horiz-adv-x="1656" 
d="M993 1624h-260l-280 340h274l141 -133l129 133h275zM1593 385q-109 -189 -298.5 -301.5t-411.5 -112.5q-164 0 -313 61.5t-257.5 166t-172.5 248t-64 301.5q0 209 108.5 387.5t294.5 282.5t404 104q222 0 411.5 -112t298.5 -298l-301 -117q-71 102 -180.5 168t-228.5 66
q-130 0 -241.5 -66.5t-176 -177.5t-64.5 -237t64.5 -237.5t176 -179t241.5 -67.5q119 0 228.5 67t180.5 171z" />
    <glyph glyph-name="ccaron" unicode="&#x10d;" horiz-adv-x="1331" 
d="M827 1253h-260l-280 340h274l141 -133l129 133h275zM702 -29q-165 0 -306.5 79t-224.5 214.5t-83 294.5t82.5 294t223.5 213.5t306 78.5q179 0 323 -85t230 -243l-276 -108q-101 168 -277 168q-133 0 -220 -90.5t-87 -227.5q0 -138 87.5 -227.5t221.5 -89.5
q184 0 285 164l260 -103q-164 -332 -545 -332z" />
    <glyph glyph-name="Dcaron" unicode="&#x10e;" horiz-adv-x="1673" 
d="M850 1624h-260l-281 340h275l141 -133l129 133h274zM160 0v1497h618q335 0 547 -188q115 -99 174.5 -242t59.5 -317q0 -170 -61.5 -316.5t-172.5 -247.5q-211 -186 -547 -186h-618zM483 281h295q68 0 126.5 10.5t121 41.5t106 80.5t71.5 135.5t28 199t-28.5 199
t-72 135.5t-106 80t-121 41t-125.5 10.5h-295v-933z" />
    <glyph glyph-name="dcaron" unicode="&#x10f;" horiz-adv-x="1615" 
d="M995 0v113q-39 -53 -134.5 -95.5t-207.5 -42.5q-173 0 -303 80t-196 212t-66 296t66 296t196 212t303 80q117 0 206.5 -40t135.5 -101v538h303v-1548h-303zM1698 1389q8 -31 8 -76q0 -113 -78 -212t-209 -128l-49 100q120 41 143 125q-65 1 -107 46.5t-44 109.5
q-4 67 43.5 117t118.5 53q63 2 110 -34.5t64 -100.5zM1008 563q0 141 -84.5 230.5t-225.5 89.5q-143 0 -226 -89.5t-83 -230.5q0 -136 85.5 -226.5t223.5 -90.5q143 0 226.5 85t83.5 232z" />
    <glyph glyph-name="Dcroat" unicode="&#x110;" horiz-adv-x="1736" 
d="M221 0v602h-168v279h168v616h621q331 0 547 -188q114 -99 172.5 -242t58.5 -317q0 -170 -60.5 -316.5t-170.5 -247.5q-214 -186 -547 -186h-621zM809 602h-262v-321h295q68 0 126.5 10.5t120.5 41.5t105.5 80.5t71.5 135.5t28 199t-28 199t-72 135.5t-106 80t-120.5 41
t-125.5 10.5h-295v-333h262v-279z" />
    <glyph glyph-name="dcroat" unicode="&#x111;" 
d="M1405 1204h-107v-1204h-303v90q-144 -119 -327 -119q-180 0 -313.5 80t-200 212.5t-66.5 297.5q0 163 66.5 294.5t200 211.5t313.5 80q103 0 187.5 -32t139.5 -83v172h-180v234h180v110h303v-110h107v-234zM1008 561q0 133 -89.5 224.5t-220.5 91.5q-138 0 -223.5 -90.5
t-85.5 -225.5q0 -143 83 -232t226 -89q131 0 220.5 92t89.5 229z" />
    <glyph glyph-name="Emacron" unicode="&#x112;" horiz-adv-x="1433" 
d="M1102 1626h-674v217h674v-217zM481 1217v-334h717v-283h-717v-319h811v-281h-1134v1497h1134v-280h-811z" />
    <glyph glyph-name="emacron" unicode="&#x113;" horiz-adv-x="1394" 
d="M1036 1255h-674v218h674v-218zM700 -29q-72 0 -148.5 16t-161 58.5t-150.5 106t-109 169.5t-43 238t44 238t110.5 169t151.5 105t160.5 58t145.5 16q110 0 212.5 -37t185.5 -106t134.5 -177t55.5 -239q0 -38 -1.5 -73.5t-2.5 -52.5l-2 -16h-889q10 -52 40.5 -91.5
t65.5 -60t78 -33.5t71 -16t52 -3q59 0 110 13.5t87 38.5t54 41t38 38l238 -138q-193 -262 -527 -262zM698 877q-127 0 -207.5 -62.5t-89.5 -152.5h564q-10 83 -84 149t-183 66z" />
    <glyph glyph-name="Edotaccent" unicode="&#x116;" horiz-adv-x="1433" 
d="M584 1755q0 64 45.5 109t113.5 45q67 0 111.5 -45t44.5 -109t-44 -106.5t-112 -42.5q-69 0 -114 42t-45 107zM481 1217v-334h717v-283h-717v-319h811v-281h-1134v1497h1134v-280h-811z" />
    <glyph glyph-name="edotaccent" unicode="&#x117;" horiz-adv-x="1394" 
d="M545 1397q0 64 46 108.5t114 44.5q67 0 111 -44.5t44 -108.5q0 -65 -44 -107.5t-111 -42.5q-69 0 -114.5 42.5t-45.5 107.5zM700 -29q-72 0 -148.5 16t-161 58.5t-150.5 106t-109 169.5t-43 238t44 238t110.5 169t151.5 105t160.5 58t145.5 16q110 0 212.5 -37
t185.5 -106t134.5 -177t55.5 -239q0 -38 -1.5 -73.5t-2.5 -52.5l-2 -16h-889q10 -52 40.5 -91.5t65.5 -60t78 -33.5t71 -16t52 -3q59 0 110 13.5t87 38.5t54 41t38 38l238 -138q-193 -262 -527 -262zM698 877q-127 0 -207.5 -62.5t-89.5 -152.5h564q-10 83 -84 149t-183 66z
" />
    <glyph glyph-name="Eogonek" unicode="&#x118;" horiz-adv-x="1433" 
d="M1284 -137l92 -195q-6 -3 -23.5 -10t-53 -18t-64.5 -15q-20 -4 -66 -4q-119 0 -207 65t-88 177q0 87 37 137h-753v1497h1134v-280h-811v-334h717v-283h-717v-319h811v-281h-71q-52 0 -94.5 -26t-39.5 -70q3 -41 29.5 -58.5t62 -12.5t62.5 13t43 17z" />
    <glyph glyph-name="eogonek" unicode="&#x119;" horiz-adv-x="1394" 
d="M1288 586q0 -38 -1.5 -73.5t-2.5 -52.5l-2 -16h-889q10 -52 40.5 -91.5t65.5 -60t78 -33.5t71 -16t52 -3q59 0 110 13.5t87 38.5t54 41t38 38l238 -138q-179 -246 -488 -262q-44 -7 -55 -53q-8 -36 11.5 -61.5t58.5 -28.5q32 -1 70 11t59 24l92 -195q-6 -3 -23.5 -10
t-53 -18t-64.5 -15q-20 -4 -66 -4q-119 0 -207 65t-88 177q0 78 43 135q-65 17 -123.5 45.5t-115.5 76t-98 107.5t-66 145.5t-25 186.5q0 132 44 238t110.5 169t151.5 105t160.5 58t145.5 16q110 0 212.5 -37t185.5 -106t134.5 -177t55.5 -239zM401 662h564q-10 83 -84 149
t-183 66q-127 0 -207.5 -62.5t-89.5 -152.5z" />
    <glyph glyph-name="Ecaron" unicode="&#x11a;" horiz-adv-x="1433" 
d="M850 1624h-260l-281 340h275l141 -133l129 133h274zM481 1217v-334h717v-283h-717v-319h811v-281h-1134v1497h1134v-280h-811z" />
    <glyph glyph-name="ecaron" unicode="&#x11b;" horiz-adv-x="1394" 
d="M823 1253h-260l-280 340h274l141 -133l129 133h275zM700 -29q-72 0 -148.5 16t-161 58.5t-150.5 106t-109 169.5t-43 238t44 238t110.5 169t151.5 105t160.5 58t145.5 16q110 0 212.5 -37t185.5 -106t134.5 -177t55.5 -239q0 -38 -1.5 -73.5t-2.5 -52.5l-2 -16h-889
q10 -52 40.5 -91.5t65.5 -60t78 -33.5t71 -16t52 -3q59 0 110 13.5t87 38.5t54 41t38 38l238 -138q-193 -262 -527 -262zM698 877q-127 0 -207.5 -62.5t-89.5 -152.5h564q-10 83 -84 149t-183 66z" />
    <glyph glyph-name="Gbreve" unicode="&#x11e;" horiz-adv-x="1763" 
d="M1294 1948q-25 -154 -132.5 -246t-264.5 -92t-267.5 93t-135.5 245h221q19 -66 68.5 -96.5t113.5 -30.5q71 0 115 35t63 92h219zM1665 834q4 -82 4 -121q0 -24 -4 -86q-12 -141 -79.5 -263.5t-172.5 -208.5t-242.5 -135t-287.5 -49q-164 0 -313 61.5t-257.5 166
t-172.5 248t-64 301.5q0 210 108.5 388.5t294.5 283t404 104.5q207 0 386.5 -97.5t291.5 -263.5l-279 -162q-73 101 -178 164.5t-221 63.5q-130 0 -242.5 -66.5t-178 -177.5t-65.5 -237t65.5 -238t178 -179t242.5 -67q146 0 273.5 83t162.5 202h-559v285h905z" />
    <glyph glyph-name="gbreve" unicode="&#x11f;" 
d="M1139 1585q-25 -154 -133 -246t-265 -92t-267.5 93t-135.5 245h221q19 -66 68.5 -96.5t113.5 -30.5q71 0 115.5 35t63.5 92h219zM1298 100q0 -244 -150 -384t-419 -140q-324 0 -539 170l150 217q72 -57 171.5 -92.5t211.5 -32.5q70 2 121.5 20.5t80 44t45 62.5t21 67.5
t4.5 67.5v19q-122 -101 -315 -101q-135 0 -247.5 44.5t-187.5 121.5t-116 179.5t-41 218.5q0 117 41 219.5t116 179.5t187.5 121.5t247.5 44.5q194 0 315 -100v79h303v-1026zM698 276q131 0 220.5 88.5t89.5 217.5q0 130 -89.5 217.5t-220.5 87.5q-139 0 -224 -87t-85 -218
q0 -135 83 -220.5t226 -85.5z" />
    <glyph glyph-name="uni0122" unicode="&#x122;" horiz-adv-x="1763" 
d="M1665 834q4 -82 4 -121q0 -24 -4 -86q-12 -141 -79.5 -263.5t-172.5 -208.5t-242.5 -135t-287.5 -49q-164 0 -313 61.5t-257.5 166t-172.5 248t-64 301.5q0 210 108.5 388.5t294.5 283t404 104.5q207 0 386.5 -97.5t291.5 -263.5l-279 -162q-73 101 -178 164.5t-221 63.5
q-130 0 -242.5 -66.5t-178 -177.5t-65.5 -237t65.5 -238t178 -179t242.5 -67q146 0 273.5 83t162.5 202h-559v285h905zM1051 -213q8 -31 8 -76q0 -113 -78 -212t-209 -128l-49 101q120 41 143 125q-65 1 -107 46t-44 109q-4 67 43.5 117t118.5 53q63 2 110 -34.5t64 -100.5z
" />
    <glyph glyph-name="uni0123" unicode="&#x123;" 
d="M551 1386q-8 31 -8 76q0 73 32.5 142t99 123.5t154.5 74.5l50 -100q-121 -42 -144 -125q65 -1 107.5 -46.5t44.5 -109.5q4 -67 -43.5 -117t-118.5 -53q-63 -2 -110 34.5t-64 100.5zM1298 100q0 -244 -150 -384t-419 -140q-324 0 -539 170l150 217q72 -57 171.5 -92.5
t211.5 -32.5q70 2 121.5 20.5t80 44t45 62.5t21 67.5t4.5 67.5v19q-122 -101 -315 -101q-135 0 -247.5 44.5t-187.5 121.5t-116 179.5t-41 218.5q0 117 41 219.5t116 179.5t187.5 121.5t247.5 44.5q194 0 315 -100v79h303v-1026zM698 276q131 0 220.5 88.5t89.5 217.5
q0 130 -89.5 217.5t-220.5 87.5q-139 0 -224 -87t-85 -218q0 -135 83 -220.5t226 -85.5z" />
    <glyph glyph-name="Imacron" unicode="&#x12a;" horiz-adv-x="724" 
d="M692 1626h-674v217h674v-217zM520 0h-323v1497h323v-1497z" />
    <glyph glyph-name="imacron" unicode="&#x12b;" horiz-adv-x="624" 
d="M645 1255h-674v218h674v-218zM156 0v1124h307v-1124h-307z" />
    <glyph glyph-name="Iogonek" unicode="&#x12e;" horiz-adv-x="724" 
d="M575 -137l93 -195q-5 -3 -23.5 -10t-54 -18t-64.5 -15q-20 -4 -65 -4q-53 0 -108.5 18t-92.5 46q-90 73 -90 184q0 73 27 131v1497h323v-1497h-20q-50 0 -87 -26t-34 -70q3 -41 29 -58.5t61.5 -12.5t62.5 13t43 17z" />
    <glyph glyph-name="iogonek" unicode="&#x12f;" horiz-adv-x="624" 
d="M309 1245q-71 0 -121.5 48.5t-50.5 117.5q0 67 50.5 115.5t121.5 48.5q69 0 118.5 -48.5t49.5 -115.5q0 -69 -49.5 -117.5t-118.5 -48.5zM535 -137l92 -195q-5 -3 -23.5 -10t-54 -18t-64.5 -15q-20 -4 -65 -4q-53 0 -108.5 18t-92.5 46q-90 73 -90 184q0 73 27 131v1124
h307v-1124h-4q-50 0 -87 -26t-34 -70q3 -41 29.5 -58.5t62 -12.5t62.5 13t43 17z" />
    <glyph glyph-name="Idotaccent" unicode="&#x130;" horiz-adv-x="724" 
d="M537 1753q0 70 -52.5 121t-124.5 51q-74 0 -127 -51t-53 -121q0 -72 53 -123t127 -51q72 0 124.5 51t52.5 123zM520 0h-323v1497h323v-1497z" />
    <glyph glyph-name="dotlessi" unicode="&#x131;" horiz-adv-x="624" 
d="M156 0v1124h307v-1124h-307z" />
    <glyph glyph-name="uni0136" unicode="&#x136;" horiz-adv-x="1538" 
d="M483 485v-485h-323v1497h323v-625l584 625h401l-616 -635l643 -862h-397l-469 637zM940 -213q8 -31 8 -76q0 -73 -32.5 -142t-99 -123.5t-154.5 -74.5l-50 101q121 42 144 125q-65 1 -107.5 46t-44.5 109q-4 67 43.5 117t118.5 53q63 2 110 -34.5t64 -100.5z" />
    <glyph glyph-name="uni0137" unicode="&#x137;" horiz-adv-x="1267" 
d="M143 1548h308v-901l383 473h374l-452 -524l471 -596h-371l-295 369l-110 -127v-242h-308v1548zM821 -213q8 -31 8 -76q0 -73 -32.5 -142t-99 -123.5t-154.5 -74.5l-49 101q120 41 143 125q-65 1 -107.5 46t-44.5 109q-4 67 43.5 117t118.5 53q63 2 110 -34.5t64 -100.5z
" />
    <glyph glyph-name="Lacute" unicode="&#x139;" horiz-adv-x="1306" 
d="M453 1960l278 -115l-305 -221h-244zM1268 281v-281h-1110v1497h325v-1216h785z" />
    <glyph glyph-name="lacute" unicode="&#x13a;" horiz-adv-x="602" 
d="M422 1960l278 -115l-305 -221h-243zM143 0v1548h308v-1548h-308z" />
    <glyph glyph-name="uni013B" unicode="&#x13b;" horiz-adv-x="1306" 
d="M1268 281v-281h-1110v1497h325v-1216h785zM877 -213q8 -31 8 -76q0 -113 -78 -212t-209 -128l-49 101q120 41 143 125q-65 1 -107 46t-44 109q-4 67 43 117t118 53q63 2 110.5 -34.5t64.5 -100.5z" />
    <glyph glyph-name="uni013C" unicode="&#x13c;" horiz-adv-x="602" 
d="M143 0v1548h308v-1548h-308zM467 -213q8 -31 8 -76q0 -113 -78 -212t-209 -128l-49 101q121 42 144 125q-65 1 -107.5 46t-44.5 109q-4 67 43.5 117t118.5 53q63 2 110 -34.5t64 -100.5z" />
    <glyph glyph-name="Lcaron" unicode="&#x13d;" horiz-adv-x="1306" 
d="M948 1389q8 -31 8 -76q0 -73 -32.5 -142t-99 -123.5t-154.5 -74.5l-49 100q120 41 143 125q-65 1 -107.5 46.5t-44.5 109.5q-4 67 43.5 117t118.5 53q63 2 110 -34.5t64 -100.5zM1268 281v-281h-1110v1497h325v-1216h785z" />
    <glyph glyph-name="lcaron" unicode="&#x13e;" horiz-adv-x="860" 
d="M920 1389q8 -31 8 -76q0 -113 -78 -212t-209 -128l-49 100q120 41 143 125q-65 1 -107 46.5t-44 109.5q-4 67 43 117t118 53q63 2 110.5 -34.5t64.5 -100.5zM520 0h-323v1497h323v-1497z" />
    <glyph glyph-name="Lslash" unicode="&#x141;" horiz-adv-x="1390" 
d="M242 772v725h325v-549l463 254v-313l-463 -252v-356h785v-281h-1110v463l-189 -101v310z" />
    <glyph glyph-name="lslash" unicode="&#x142;" horiz-adv-x="647" 
d="M471 872v-872h-307v702l-109 -59v311l109 60v495h307v-323l115 63v-313z" />
    <glyph glyph-name="Nacute" unicode="&#x143;" horiz-adv-x="1695" 
d="M893 1960l278 -115l-305 -221h-243zM481 852v-852h-321v1544l1032 -913v864h324v-1542z" />
    <glyph glyph-name="nacute" unicode="&#x144;" horiz-adv-x="1347" 
d="M717 1589l278 -114l-305 -222h-244zM745 1147q235 0 340 -125t105 -356v-666h-313v666q0 227 -218 227q-28 0 -55.5 -7t-58 -27t-53 -51.5t-36.5 -86.5t-12 -125v-596h-305v1126h305v-100q55 55 139.5 88t161.5 33z" />
    <glyph glyph-name="uni0145" unicode="&#x145;" horiz-adv-x="1695" 
d="M481 852v-852h-321v1544l1032 -913v864h324v-1542zM1053 -213q8 -31 8 -76q0 -113 -78 -212t-209 -128l-49 101q120 41 143 125q-65 1 -107 46t-44 109q-4 67 43.5 117t118.5 53q63 2 110 -34.5t64 -100.5z" />
    <glyph glyph-name="uni0146" unicode="&#x146;" horiz-adv-x="1347" 
d="M745 1147q235 0 340 -125t105 -356v-666h-313v666q0 227 -218 227q-28 0 -55.5 -7t-58 -27t-53 -51.5t-36.5 -86.5t-12 -125v-596h-305v1126h305v-100q55 55 139.5 88t161.5 33zM827 -213q9 -35 9 -76q0 -113 -78 -212t-209 -128l-49 101q120 41 143 125q-65 1 -107 46
t-44 109q-4 67 43 117t118 53q63 2 110 -34.5t64 -100.5z" />
    <glyph glyph-name="Ncaron" unicode="&#x147;" horiz-adv-x="1695" 
d="M967 1624h-260l-281 340h274l142 -133l129 133h274zM481 852v-852h-321v1544l1032 -913v864h324v-1542z" />
    <glyph glyph-name="ncaron" unicode="&#x148;" horiz-adv-x="1347" 
d="M782 1253h-260l-280 340h274l141 -133l129 133h275zM745 1147q235 0 340 -125t105 -356v-666h-313v666q0 227 -218 227q-28 0 -55.5 -7t-58 -27t-53 -51.5t-36.5 -86.5t-12 -125v-596h-305v1126h305v-100q55 55 139.5 88t161.5 33z" />
    <glyph glyph-name="Omacron" unicode="&#x14c;" horiz-adv-x="1802" 
d="M1223 1626h-674v217h674v-217zM889 -29q-218 0 -403.5 104.5t-293.5 284t-108 390.5q0 210 108 388.5t293.5 283t403.5 104.5q164 0 314 -62t258.5 -166t172.5 -247.5t64 -300.5q0 -211 -108.5 -390.5t-295 -284t-405.5 -104.5zM889 1231q-130 0 -242 -66.5
t-176.5 -177.5t-64.5 -237q0 -127 64.5 -239t176.5 -179.5t242 -67.5q131 0 243 67.5t176 179.5t64 239q0 126 -64 237t-176 177.5t-243 66.5z" />
    <glyph glyph-name="omacron" unicode="&#x14d;" horiz-adv-x="1421" 
d="M1036 1255h-674v218h674v-218zM698 -27q-165 0 -305.5 78.5t-222.5 214t-82 295.5q0 158 82 293t222.5 214t305.5 79q124 0 237.5 -46.5t196.5 -125t132 -187.5t49 -227q0 -160 -83 -295.5t-224.5 -214t-307.5 -78.5zM698 879q-129 0 -219 -92.5t-90 -225.5
q0 -139 88 -230t221 -91q131 0 220.5 92.5t89.5 228.5q0 135 -89.5 226.5t-220.5 91.5z" />
    <glyph glyph-name="Ohungarumlaut" unicode="&#x150;" horiz-adv-x="1802" 
d="M801 1960l256 -115l-293 -221h-238zM1192 1960l256 -115l-291 -221h-235zM889 -29q-218 0 -403.5 104.5t-293.5 284t-108 390.5q0 210 108 388.5t293.5 283t403.5 104.5q164 0 314 -62t258.5 -166t172.5 -247.5t64 -300.5q0 -211 -108.5 -390.5t-295 -284t-405.5 -104.5z
M889 1231q-130 0 -242 -66.5t-176.5 -177.5t-64.5 -237q0 -127 64.5 -239t176.5 -179.5t242 -67.5q131 0 243 67.5t176 179.5t64 239q0 126 -64 237t-176 177.5t-243 66.5z" />
    <glyph glyph-name="ohungarumlaut" unicode="&#x151;" horiz-adv-x="1421" 
d="M600 1587l256 -114l-293 -222h-237zM991 1587l256 -114l-291 -222h-235zM698 -27q-165 0 -305.5 78.5t-222.5 214t-82 295.5q0 158 82 293t222.5 214t305.5 79q124 0 237.5 -46.5t196.5 -125t132 -187.5t49 -227q0 -160 -83 -295.5t-224.5 -214t-307.5 -78.5zM698 879
q-129 0 -219 -92.5t-90 -225.5q0 -139 88 -230t221 -91q131 0 220.5 92.5t89.5 228.5q0 135 -89.5 226.5t-220.5 91.5z" />
    <glyph glyph-name="OE" unicode="&#x152;" horiz-adv-x="2469" 
d="M1481 1214v-331h737v-287h-737v-311h829v-285h-1153v16q-122 -45 -262 -45q-164 0 -313.5 62t-257.5 166.5t-172 248.5t-64 302q0 157 64 300.5t172 247.5t257.5 166t313.5 62q135 0 262 -45v16h1153v-283h-829zM895 254q164 0 262 102v787q-84 100 -262 100
q-136 0 -244 -55t-173.5 -168.5t-65.5 -269.5q0 -150 65 -264.5t174 -173t244 -58.5z" />
    <glyph glyph-name="oe" unicode="&#x153;" horiz-adv-x="2293" 
d="M1599 -29q-74 0 -150 17.5t-159.5 64t-142.5 115.5q-85 -92 -201 -143.5t-248 -51.5q-165 0 -305.5 78.5t-222.5 214t-82 295.5q0 158 82 293t222.5 214t305.5 79q132 0 249 -53t202 -146q87 103 211 150t239 47q110 0 212.5 -37t185.5 -106t134.5 -177t55.5 -239
q0 -38 -1.5 -73.5t-3.5 -52.5l-1 -16h-889q10 -52 40.5 -91.5t65.5 -60t78 -33.5t71 -16t52 -3q59 0 110 13.5t87 38.5t54 41t38 38l238 -138q-193 -262 -527 -262zM698 879q-129 0 -219 -92.5t-90 -225.5q0 -139 88 -230t221 -91q131 0 220.5 92.5t89.5 228.5
q0 135 -89.5 226.5t-220.5 91.5zM1599 877q-124 0 -201 -58t-98 -141h564q-20 80 -89 139.5t-176 59.5z" />
    <glyph glyph-name="Racute" unicode="&#x154;" horiz-adv-x="1492" 
d="M782 1960l279 -115l-305 -221h-244zM481 0h-321v1497h665q241 0 391 -144.5t150 -375.5q0 -161 -82 -287.5t-223 -187.5q146 -184 387 -502h-387q-143 180 -359 467h-221v-467zM481 748h344q84 0 151.5 60t67.5 169q0 28 -4 55.5t-18.5 62.5t-37 60.5t-64 43.5t-95.5 18
h-344v-469z" />
    <glyph glyph-name="racute" unicode="&#x155;" horiz-adv-x="868" 
d="M436 1589l279 -114l-305 -222h-244zM827 848q-14 3 -38 0.5t-53.5 -4.5t-63 -14t-66 -26.5t-62.5 -43t-52.5 -63t-36 -86t-13.5 -113.5v-498h-305v1126h305v-149q40 53 95.5 90t111.5 53t98.5 22t79.5 5v-299z" />
    <glyph glyph-name="uni0156" unicode="&#x156;" horiz-adv-x="1492" 
d="M481 0h-321v1497h665q241 0 391 -144.5t150 -375.5q0 -161 -82 -287.5t-223 -187.5q146 -184 387 -502h-387q-143 180 -359 467h-221v-467zM481 748h344q84 0 151.5 60t67.5 169q0 28 -4 55.5t-18.5 62.5t-37 60.5t-64 43.5t-95.5 18h-344v-469zM905 -213q8 -31 8 -76
q0 -73 -32.5 -142t-99 -123.5t-154.5 -74.5l-49 101q120 41 143 125q-65 1 -107.5 46t-44.5 109q-4 67 43.5 117t118.5 53q63 2 110 -34.5t64 -100.5z" />
    <glyph glyph-name="uni0157" unicode="&#x157;" horiz-adv-x="868" 
d="M827 848q-14 3 -38 0.5t-53.5 -4.5t-63 -14t-66 -26.5t-62.5 -43t-52.5 -63t-36 -86t-13.5 -113.5v-498h-305v1126h305v-149q40 53 95.5 90t111.5 53t98.5 22t79.5 5v-299zM453 -213q8 -31 8 -76q0 -113 -78 -212t-209 -128l-49 101q120 41 143 125q-65 1 -107 46
t-44 109q-4 67 43.5 117t118.5 53q63 2 110 -34.5t64 -100.5z" />
    <glyph glyph-name="Rcaron" unicode="&#x158;" horiz-adv-x="1492" 
d="M821 1624h-260l-280 340h274l141 -133l129 133h275zM481 0h-321v1497h665q241 0 391 -144.5t150 -375.5q0 -161 -82 -287.5t-223 -187.5q146 -184 387 -502h-387q-143 180 -359 467h-221v-467zM481 748h344q84 0 151.5 60t67.5 169q0 28 -4 55.5t-18.5 62.5t-37 60.5
t-64 43.5t-95.5 18h-344v-469z" />
    <glyph glyph-name="rcaron" unicode="&#x159;" horiz-adv-x="868" 
d="M573 1253h-260l-280 340h274l142 -133l129 133h274zM827 848q-14 3 -38 0.5t-53.5 -4.5t-63 -14t-66 -26.5t-62.5 -43t-52.5 -63t-36 -86t-13.5 -113.5v-498h-305v1126h305v-149q40 53 95.5 90t111.5 53t98.5 22t79.5 5v-299z" />
    <glyph glyph-name="Sacute" unicode="&#x15a;" horiz-adv-x="1447" 
d="M786 1960l279 -115l-305 -221h-244zM264 453q89 -73 233.5 -132t266.5 -59q127 0 201.5 49.5t74.5 116.5q0 25 -10 46t-24.5 36t-42.5 29t-51 22.5t-63.5 18t-67.5 15t-74 13.5q-43 7 -70.5 12t-79.5 17t-88.5 24t-86 33t-84.5 44.5t-72.5 57.5t-60 72.5t-37.5 89.5
t-15 109q0 103 37 183.5t95.5 130t138.5 82t159 45t164 12.5q184 0 319.5 -50.5t271.5 -150.5l-180 -246q-216 154 -424 154q-40 0 -80.5 -7t-82.5 -22t-68.5 -46t-26.5 -73q0 -28 15.5 -50.5t40.5 -37.5t59.5 -27t71 -20.5t75.5 -16.5q24 -5 35 -7q23 -5 76 -15t84 -16.5
t83.5 -20t85 -25.5t78 -33.5t73.5 -44.5t60 -57t49.5 -72.5t29.5 -89.5t12 -110q0 -227 -161 -346t-435 -119q-403 0 -676 234z" />
    <glyph glyph-name="sacute" unicode="&#x15b;" horiz-adv-x="1171" 
d="M659 1589l279 -114l-305 -222h-244zM606 -27q-306 0 -528 177l160 212q74 -50 172 -85t192 -35q70 0 116 28.5t46 71.5q0 18 -12.5 32.5t-30 23.5t-44.5 16t-46.5 10t-47.5 7t-36 5q-161 28 -239 61q-208 88 -208 294q0 68 20.5 123.5t52 91.5t76.5 63.5t87 41.5t89.5 23
t79 11t60.5 2q133 0 245.5 -39t223.5 -123l-160 -209q-180 105 -319 105q-51 0 -99 -23t-48 -61q0 -75 213 -101q159 -28 221 -49q178 -61 216 -211q11 -44 11 -96q0 -175 -121 -271t-342 -96z" />
    <glyph glyph-name="Scedilla" unicode="&#x15e;" horiz-adv-x="1447" 
d="M1364 436q0 -217 -147.5 -335.5t-401.5 -129.5l-24 -49q25 0 63 -10q59 -17 90.5 -66.5t26.5 -109.5q-3 -47 -23 -82.5t-45.5 -53.5t-59 -29.5t-56.5 -14t-46 -2.5q-34 1 -67 8t-55 17t-39 20t-25 17l-8 7l57 101q5 -2 18 -7.5t18.5 -8t17 -6t20.5 -5t22 -3t27 -1.5
q32 0 47.5 13t13.5 34q-2 41 -69 41q-19 0 -37.5 -4.5t-40 -13t-25.5 -9.5l-34 58l65 165q-324 29 -555 228l172 248q89 -73 233.5 -132t266.5 -59q127 0 201.5 49.5t74.5 116.5q0 25 -10 46t-24.5 36t-42.5 29t-51 22.5t-63.5 18t-67.5 15t-74 13.5q-43 7 -70.5 12
t-79.5 17t-88.5 24t-86 33t-84.5 44.5t-72.5 57.5t-60 72.5t-37.5 89.5t-15 109q0 103 37 183.5t95.5 130t138.5 82t159 45t164 12.5q184 0 319.5 -50.5t271.5 -150.5l-180 -246q-216 154 -424 154q-40 0 -80.5 -7t-82.5 -22t-68.5 -46t-26.5 -73q0 -28 15.5 -50.5
t40.5 -37.5t59.5 -27t71 -20.5t75.5 -16.5q24 -5 35 -7q23 -5 76 -15t84 -16.5t83.5 -20t85 -25.5t78 -33.5t73.5 -44.5t60 -57t49.5 -72.5t29.5 -89.5t12 -110z" />
    <glyph glyph-name="scedilla" unicode="&#x15f;" horiz-adv-x="1171" 
d="M1069 340q0 -163 -104.5 -258t-296.5 -107l-27 -53q26 0 64 -10q58 -17 89.5 -66.5t26.5 -109.5q-3 -47 -23 -82.5t-45.5 -53.5t-58.5 -29.5t-56 -14t-46 -2.5q-55 1 -103.5 18t-70.5 34l-21 17l58 101q5 -2 18 -7.5t18.5 -8t17 -6t20.5 -5t22 -3t27 -1.5q32 0 47.5 13
t13.5 34q-2 41 -70 41q-19 0 -37 -4.5t-39.5 -13t-25.5 -9.5l-35 58l68 168q-241 24 -422 170l160 212q74 -50 172 -85t192 -35q70 0 116 28.5t46 71.5q0 18 -12.5 32.5t-30 23.5t-44.5 16t-46.5 10t-47.5 7t-36 5q-161 28 -239 61q-208 88 -208 294q0 68 20.5 123.5
t52 91.5t76.5 63.5t87 41.5t89.5 23t79 11t60.5 2q133 0 245.5 -39t223.5 -123l-160 -209q-180 105 -319 105q-51 0 -99 -23t-48 -61q0 -75 213 -101q159 -28 221 -49q178 -61 216 -211q11 -44 11 -96z" />
    <glyph glyph-name="Scaron" unicode="&#x160;" horiz-adv-x="1447" 
d="M856 1624h-260l-281 340h275l141 -133l129 133h275zM264 453q89 -73 233.5 -132t266.5 -59q127 0 201.5 49.5t74.5 116.5q0 25 -10 46t-24.5 36t-42.5 29t-51 22.5t-63.5 18t-67.5 15t-74 13.5q-43 7 -70.5 12t-79.5 17t-88.5 24t-86 33t-84.5 44.5t-72.5 57.5t-60 72.5
t-37.5 89.5t-15 109q0 103 37 183.5t95.5 130t138.5 82t159 45t164 12.5q184 0 319.5 -50.5t271.5 -150.5l-180 -246q-216 154 -424 154q-40 0 -80.5 -7t-82.5 -22t-68.5 -46t-26.5 -73q0 -28 15.5 -50.5t40.5 -37.5t59.5 -27t71 -20.5t75.5 -16.5q24 -5 35 -7q23 -5 76 -15
t84 -16.5t83.5 -20t85 -25.5t78 -33.5t73.5 -44.5t60 -57t49.5 -72.5t29.5 -89.5t12 -110q0 -227 -161 -346t-435 -119q-403 0 -676 234z" />
    <glyph glyph-name="scaron" unicode="&#x161;" horiz-adv-x="1171" 
d="M702 1253h-260l-280 340h274l142 -133l129 133h274zM606 -27q-306 0 -528 177l160 212q74 -50 172 -85t192 -35q70 0 116 28.5t46 71.5q0 18 -12.5 32.5t-30 23.5t-44.5 16t-46.5 10t-47.5 7t-36 5q-161 28 -239 61q-208 88 -208 294q0 68 20.5 123.5t52 91.5t76.5 63.5
t87 41.5t89.5 23t79 11t60.5 2q133 0 245.5 -39t223.5 -123l-160 -209q-180 105 -319 105q-51 0 -99 -23t-48 -61q0 -75 213 -101q159 -28 221 -49q178 -61 216 -211q11 -44 11 -96q0 -175 -121 -271t-342 -96z" />
    <glyph glyph-name="uni0162" unicode="&#x162;" horiz-adv-x="1325" 
d="M1286 1217h-434v-1217h-326v1217h-436v280h1196v-280zM854 -213q8 -31 8 -76q0 -113 -78 -212t-209 -128l-49 101q121 42 144 125q-65 1 -107.5 46t-44.5 109q-4 67 43.5 117t118.5 53q63 2 110 -34.5t64 -100.5z" />
    <glyph glyph-name="uni0163" unicode="&#x163;" horiz-adv-x="839" 
d="M520 877v-476q0 -25 1 -41.5t8.5 -43t21 -42.5t41.5 -28.5t67 -12.5q33 0 78 5v-258q-83 -9 -137 -9q-77 0 -132 6.5t-105 24t-80.5 48.5t-48 81.5t-17.5 120.5v625h-137v268h137v301h303v-301h225v-268h-225zM604 -213q8 -31 8 -76q0 -73 -32.5 -142t-99 -123.5
t-154.5 -74.5l-50 101q121 42 144 125q-65 1 -107.5 46t-44.5 109q-4 67 43.5 117t118.5 53q63 2 110 -34.5t64 -100.5z" />
    <glyph glyph-name="Tcaron" unicode="&#x164;" horiz-adv-x="1325" 
d="M821 1624h-260l-280 340h274l141 -133l129 133h275zM1286 1217h-434v-1217h-326v1217h-436v280h1196v-280z" />
    <glyph glyph-name="tcaron" unicode="&#x165;" horiz-adv-x="1017" 
d="M1100 1389q8 -31 8 -76q0 -113 -78 -212t-209 -128l-49 100q120 41 143 125q-65 1 -107 46.5t-44 109.5q-4 67 43.5 117t118.5 53q63 2 110 -34.5t64 -100.5zM520 877v-476q0 -25 1 -41.5t8.5 -43t21 -42.5t41.5 -28.5t67 -12.5q33 0 78 5v-258q-83 -9 -137 -9
q-77 0 -132 6.5t-105 24t-80.5 48.5t-48 81.5t-17.5 120.5v625h-137v268h137v301h303v-301h225v-268h-225z" />
    <glyph glyph-name="Umacron" unicode="&#x16a;" horiz-adv-x="1679" 
d="M1159 1626h-674v217h674v-217zM831 -27q-306 0 -488.5 172.5t-182.5 460.5v889h323v-889q0 -81 24 -145t60.5 -102t84.5 -63.5t92 -34.5t87 -9q42 0 85 9t91 34.5t84.5 63.5t60.5 102t24 145v889h323v-889q0 -288 -182 -460.5t-486 -172.5z" />
    <glyph glyph-name="umacron" unicode="&#x16b;" horiz-adv-x="1347" 
d="M987 1255h-674v218h674v-218zM582 -25q-443 0 -443 482v665h310v-665q0 -120 60.5 -173t158.5 -53q37 0 72 12.5t70 42.5t55.5 92t17.5 148v596h307v-1122h-307v96q-56 -57 -134 -89t-167 -32z" />
    <glyph glyph-name="Uring" unicode="&#x16e;" horiz-adv-x="1679" 
d="M829 1620q-98 0 -168.5 68t-70.5 165q0 94 70.5 162t168.5 68q99 0 170.5 -68t71.5 -162q0 -97 -71 -165t-171 -68zM829 1917q-28 0 -47.5 -19t-19.5 -45q0 -29 19.5 -47t47.5 -18q30 0 50 18t20 47q0 26 -20.5 45t-49.5 19zM831 -27q-306 0 -488.5 172.5t-182.5 460.5
v889h323v-889q0 -81 24 -145t60.5 -102t84.5 -63.5t92 -34.5t87 -9q42 0 85 9t91 34.5t84.5 63.5t60.5 102t24 145v889h323v-889q0 -288 -182 -460.5t-486 -172.5z" />
    <glyph glyph-name="uring" unicode="&#x16f;" horiz-adv-x="1347" 
d="M664 1251q-98 0 -169 68.5t-71 165.5q0 94 71 161.5t169 67.5q100 0 170.5 -67.5t70.5 -161.5q0 -97 -70.5 -165.5t-170.5 -68.5zM664 1548q-28 0 -48 -18.5t-20 -44.5q0 -29 20 -47.5t48 -18.5q30 0 49.5 18.5t19.5 47.5q0 26 -20 44.5t-49 18.5zM582 -25
q-443 0 -443 482v665h310v-665q0 -120 60.5 -173t158.5 -53q37 0 72 12.5t70 42.5t55.5 92t17.5 148v596h307v-1122h-307v96q-56 -57 -134 -89t-167 -32z" />
    <glyph glyph-name="Uhungarumlaut" unicode="&#x170;" horiz-adv-x="1679" 
d="M735 1960l256 -115l-293 -221h-237zM1126 1960l256 -115l-290 -221h-236zM831 -27q-306 0 -488.5 172.5t-182.5 460.5v889h323v-889q0 -81 24 -145t60.5 -102t84.5 -63.5t92 -34.5t87 -9q42 0 85 9t91 34.5t84.5 63.5t60.5 102t24 145v889h323v-889q0 -288 -182 -460.5
t-486 -172.5z" />
    <glyph glyph-name="uhungarumlaut" unicode="&#x171;" horiz-adv-x="1347" 
d="M555 1587l256 -114l-293 -222h-237zM946 1587l256 -114l-291 -222h-235zM582 -25q-443 0 -443 482v665h310v-665q0 -120 60.5 -173t158.5 -53q37 0 72 12.5t70 42.5t55.5 92t17.5 148v596h307v-1122h-307v96q-56 -57 -134 -89t-167 -32z" />
    <glyph glyph-name="Uogonek" unicode="&#x172;" horiz-adv-x="1679" 
d="M1176 1495h323v-889q0 -275 -167.5 -446t-450.5 -185q-58 -9 -68 -57q-8 -36 11.5 -62.5t58.5 -27.5q32 -1 70 11t59 24l92 -195q-6 -3 -23.5 -10t-53 -18t-64.5 -15q-20 -4 -66 -4q-119 0 -207 65t-88 177q0 75 39 131q-224 50 -352.5 212t-128.5 400v889h323v-889
q0 -81 24 -145t60.5 -102t84.5 -63.5t92 -34.5t87 -9q42 0 85 9t91 34.5t84.5 63.5t60.5 102t24 145v889z" />
    <glyph glyph-name="uogonek" unicode="&#x173;" horiz-adv-x="1347" 
d="M1264 -113l92 -194q-5 -3 -23.5 -10t-54 -18t-64.5 -15q-20 -4 -65 -4q-119 0 -207 64.5t-88 176.5q0 60 29 113v96q-56 -57 -134 -89t-167 -32q-443 0 -443 482v665h310v-665q0 -120 60.5 -173t158.5 -53q37 0 72 12.5t70 42.5t55.5 92t17.5 148v596h307v-1122h-45
q-67 0 -80 -57q-8 -36 11.5 -62.5t58.5 -27.5q32 -1 70.5 11t58.5 23z" />
    <glyph glyph-name="Ydieresis" unicode="&#x178;" horiz-adv-x="1503" 
d="M377 1757q0 63 46.5 107.5t113.5 44.5t111 -44t44 -108q0 -65 -44 -107t-111 -42q-68 0 -114 42.5t-46 106.5zM801 1757q0 64 44.5 108t112.5 44q66 0 113 -44.5t47 -107.5q0 -64 -46.5 -106.5t-113.5 -42.5q-69 0 -113 42t-44 107zM1503 1495l-594 -928v-567h-323v567
l-590 928h379l373 -604l376 604h379z" />
    <glyph glyph-name="Zacute" unicode="&#x179;" horiz-adv-x="1495" 
d="M850 1960l278 -115l-305 -221h-243zM590 281h811v-281h-1403l881 1214h-779v281h1373z" />
    <glyph glyph-name="zacute" unicode="&#x17a;" horiz-adv-x="1159" 
d="M668 1589l278 -114l-305 -222h-244zM602 858h-528v264h1071l-615 -856h551v-266h-1091z" />
    <glyph glyph-name="Zdotaccent" unicode="&#x17b;" horiz-adv-x="1495" 
d="M621 1755q0 64 45.5 109t113.5 45q67 0 111.5 -45t44.5 -109t-44 -106.5t-112 -42.5q-69 0 -114 42t-45 107zM590 281h811v-281h-1403l881 1214h-779v281h1373z" />
    <glyph glyph-name="zdotaccent" unicode="&#x17c;" horiz-adv-x="1159" 
d="M463 1397q0 64 46 108.5t114 44.5q67 0 111 -44.5t44 -108.5q0 -65 -44 -107.5t-111 -42.5q-69 0 -114.5 42.5t-45.5 107.5zM602 858h-528v264h1071l-615 -856h551v-266h-1091z" />
    <glyph glyph-name="Zcaron" unicode="&#x17d;" horiz-adv-x="1495" 
d="M895 1624h-260l-281 340h275l141 -133l129 133h275zM590 281h811v-281h-1403l881 1214h-779v281h1373z" />
    <glyph glyph-name="zcaron" unicode="&#x17e;" horiz-adv-x="1159" 
d="M721 1253h-260l-281 340h275l141 -133l129 133h274zM602 858h-528v264h1071l-615 -856h551v-266h-1091z" />
    <glyph glyph-name="uni0218" unicode="&#x218;" horiz-adv-x="1447" 
d="M264 453q89 -73 233.5 -132t266.5 -59q127 0 201.5 49.5t74.5 116.5q0 25 -10 46t-24.5 36t-42.5 29t-51 22.5t-63.5 18t-67.5 15t-74 13.5q-43 7 -70.5 12t-79.5 17t-88.5 24t-86 33t-84.5 44.5t-72.5 57.5t-60 72.5t-37.5 89.5t-15 109q0 103 37 183.5t95.5 130
t138.5 82t159 45t164 12.5q184 0 319.5 -50.5t271.5 -150.5l-180 -246q-216 154 -424 154q-40 0 -80.5 -7t-82.5 -22t-68.5 -46t-26.5 -73q0 -28 15.5 -50.5t40.5 -37.5t59.5 -27t71 -20.5t75.5 -16.5q24 -5 35 -7q23 -5 76 -15t84 -16.5t83.5 -20t85 -25.5t78 -33.5
t73.5 -44.5t60 -57t49.5 -72.5t29.5 -89.5t12 -110q0 -227 -161 -346t-435 -119q-403 0 -676 234zM924 -213q8 -31 8 -76q0 -113 -78 -212t-209 -128l-49 101q120 41 143 125q-65 1 -107 46t-44 109q-4 67 43.5 117t118.5 53q63 2 110 -34.5t64 -100.5z" />
    <glyph glyph-name="uni0219" unicode="&#x219;" horiz-adv-x="1171" 
d="M606 -27q-306 0 -528 177l160 212q74 -50 172 -85t192 -35q70 0 116 28.5t46 71.5q0 18 -12.5 32.5t-30 23.5t-44.5 16t-46.5 10t-47.5 7t-36 5q-161 28 -239 61q-208 88 -208 294q0 68 20.5 123.5t52 91.5t76.5 63.5t87 41.5t89.5 23t79 11t60.5 2q133 0 245.5 -39
t223.5 -123l-160 -209q-180 105 -319 105q-51 0 -99 -23t-48 -61q0 -75 213 -101q159 -28 221 -49q178 -61 216 -211q11 -44 11 -96q0 -175 -121 -271t-342 -96zM772 -213q8 -31 8 -76q0 -73 -32.5 -142t-99 -123.5t-154.5 -74.5l-50 101q121 42 144 125q-65 1 -107.5 46
t-44.5 109q-4 67 43.5 117t118.5 53q63 2 110 -34.5t64 -100.5z" />
    <glyph glyph-name="uni021A" unicode="&#x21a;" horiz-adv-x="1325" 
d="M1286 1217h-434v-1217h-326v1217h-436v280h1196v-280zM856 -213q8 -31 8 -76q0 -73 -32.5 -142t-99 -123.5t-154.5 -74.5l-50 101q121 42 144 125q-65 1 -107.5 46t-44.5 109q-4 67 43.5 117t118.5 53q63 2 110 -34.5t64 -100.5z" />
    <glyph glyph-name="uni021B" unicode="&#x21b;" horiz-adv-x="839" 
d="M520 877v-476q0 -25 1 -41.5t8.5 -43t21 -42.5t41.5 -28.5t67 -12.5q33 0 78 5v-258q-83 -9 -137 -9q-77 0 -132 6.5t-105 24t-80.5 48.5t-48 81.5t-17.5 120.5v625h-137v268h137v301h303v-301h225v-268h-225zM578 -213q8 -31 8 -76q0 -113 -78 -212t-209 -128l-49 101
q120 41 143 125q-65 1 -107 46t-44 109q-4 67 43 117t118 53q63 2 110.5 -34.5t64.5 -100.5z" />
    <glyph glyph-name="circumflex" unicode="&#x2c6;" horiz-adv-x="917" 
d="M315 1538h260l281 -338h-274l-140 131l-131 -133h-274z" />
    <glyph glyph-name="caron" unicode="&#x2c7;" horiz-adv-x="919" 
d="M580 1198h-261l-280 340h274l142 -133l129 133h274z" />
    <glyph glyph-name="breve" unicode="&#x2d8;" horiz-adv-x="911" 
d="M852 1513q-25 -154 -132.5 -245.5t-264.5 -91.5q-158 0 -268.5 93t-135.5 244h221q19 -66 68.5 -96.5t114.5 -30.5q71 0 115 35t63 92h219z" />
    <glyph glyph-name="dotaccent" unicode="&#x2d9;" horiz-adv-x="448" 
d="M59 1411q0 64 46 109t114 45q67 0 111.5 -45t44.5 -109t-44 -106.5t-112 -42.5q-69 0 -114.5 42.5t-45.5 106.5z" />
    <glyph glyph-name="ring" unicode="&#x2da;" horiz-adv-x="591" 
d="M291 1042q-98 0 -169 68.5t-71 165.5q0 94 71 161.5t169 67.5q100 0 170.5 -67.5t70.5 -161.5q0 -97 -70.5 -165.5t-170.5 -68.5zM291 1339q-28 0 -48 -18.5t-20 -44.5q0 -29 20 -47.5t48 -18.5q30 0 49.5 18.5t19.5 47.5q0 26 -20 44.5t-49 18.5z" />
    <glyph glyph-name="ogonek" unicode="&#x2db;" horiz-adv-x="591" 
d="M358 -379q-109 0 -194 64q-48 39 -78.5 99.5t-30.5 123.5q0 94 56 170q45 58 132.5 95t153.5 40l13 -213q-52 0 -94.5 -26t-39.5 -70q3 -41 29.5 -58.5t62 -12.5t62.5 13t43 17l92 -195q-6 -3 -23.5 -10t-53 -18t-64.5 -15q-20 -4 -66 -4z" />
    <glyph glyph-name="tilde" unicode="&#x2dc;" horiz-adv-x="1007" 
d="M328 1511q45 0 81.5 -13t61 -31.5t46.5 -36.5t49 -31t57 -13t53 11.5t38 34t21 34t13 32.5q1 3 2 5l184 -57q-12 -42 -31.5 -83.5t-51 -85t-79 -70.5t-102.5 -27q-62 0 -109 20t-70.5 43.5t-57 43.5t-71.5 20q-82 0 -119 -109l-1 -4l-183 61q16 51 38 93.5t54 80.5
t77.5 60t99.5 22z" />
    <glyph glyph-name="hungarumlaut" unicode="&#x2dd;" horiz-adv-x="1017" 
d="M297 1520l256 -115l-293 -221h-237zM688 1520l256 -115l-291 -221h-235z" />
    <glyph glyph-name="endash" unicode="&#x2013;" horiz-adv-x="1052" 
d="M963 451h-895v278h895v-278z" />
    <glyph glyph-name="emdash" unicode="&#x2014;" horiz-adv-x="1566" 
d="M1466 451h-1396v278h1396v-278z" />
    <glyph glyph-name="quoteleft" unicode="&#x2018;" horiz-adv-x="524" 
d="M86 1110q-8 46 -8 76q0 73 32.5 142t99 123.5t155.5 74.5l51 -101q-130 -45 -150 -125q68 -1 112 -46t46 -109q3 -68 -44.5 -117.5t-117.5 -52.5q-66 -1 -113.5 35.5t-62.5 99.5z" />
    <glyph glyph-name="quoteright" unicode="&#x2019;" horiz-adv-x="409" 
d="M367 1389q8 -31 8 -76q0 -113 -78 -212t-209 -128l-49 100q120 41 143 125q-65 1 -107 46.5t-44 109.5q-4 67 43.5 117t118.5 53q63 2 110 -34.5t64 -100.5z" />
    <glyph glyph-name="quotesinglbase" unicode="&#x201a;" horiz-adv-x="446" 
d="M377 176q10 -42 10 -76q0 -115 -78.5 -213.5t-210.5 -126.5l-47 103q118 37 144 121q-65 3 -108 47t-46 108q-3 67 45 118t117 54q63 2 111 -35t63 -100z" />
    <glyph glyph-name="quotedblleft" unicode="&#x201c;" horiz-adv-x="944" 
d="M88 1110q-6 34 -6 76q0 114 77 212.5t210 127.5l49 -101q-131 -45 -148 -125q67 -1 110.5 -46t45.5 -109q3 -68 -44.5 -117.5t-117.5 -52.5q-65 -2 -113 35t-63 100zM483 1110q-8 31 -8 76q0 113 78 212t209 128l49 -101q-118 -43 -141 -125q64 -1 106.5 -46t44.5 -109
q4 -67 -44.5 -117t-119.5 -53q-63 -2 -111 35t-63 100z" />
    <glyph glyph-name="quotedblright" unicode="&#x201d;" horiz-adv-x="835" 
d="M381 1389q8 -33 8 -78q0 -113 -78 -212t-209 -128l-47 100q116 41 142 125q-65 1 -107.5 46.5t-44.5 109.5q-3 68 44.5 117.5t117.5 52.5q64 2 111.5 -34.5t62.5 -98.5zM778 1389q8 -33 8 -78q0 -113 -78 -212t-210 -128l-49 100q123 40 145 125q-67 1 -110.5 46.5
t-43.5 109.5q-3 67 45 117t117 53q64 1 111.5 -34.5t64.5 -98.5z" />
    <glyph glyph-name="quotedblbase" unicode="&#x201e;" horiz-adv-x="835" 
d="M381 174q8 -33 8 -76q0 -113 -78 -212.5t-209 -127.5l-47 101q114 38 142 123q-65 1 -107.5 46t-44.5 109q-3 68 44.5 118.5t117.5 53.5q63 2 111 -35t63 -100zM778 174q8 -33 8 -76q0 -114 -78 -213t-210 -127l-49 101q122 36 145 123q-67 1 -110.5 46t-43.5 109
q-3 67 45 118t117 54q64 1 111.5 -35.5t64.5 -99.5z" />
    <glyph glyph-name="dagger" unicode="&#x2020;" horiz-adv-x="1028" 
d="M981 913h-338v-913h-268v913h-340v258h340v383h268v-383h338v-258z" />
    <glyph glyph-name="daggerdbl" unicode="&#x2021;" horiz-adv-x="1042" 
d="M35 641h340v272h-340v258h340v383h268v-383h338v-258h-338v-272h338v-258h-338v-383h-268v383h-340v258z" />
    <glyph glyph-name="bullet" unicode="&#x2022;" horiz-adv-x="770" 
d="M129 627q0 99 74.5 170t177.5 71q104 0 178 -70.5t74 -170.5t-74 -171t-178 -71q-103 0 -177.5 71t-74.5 171z" />
    <glyph glyph-name="ellipsis" unicode="&#x2026;" horiz-adv-x="1556" 
d="M436 147q0 -68 -50 -115.5t-120 -47.5q-69 0 -118.5 48t-49.5 115q0 66 49.5 115t118.5 49q70 0 120 -49t50 -115zM930 147q0 -68 -50 -115.5t-120 -47.5q-68 0 -118 48t-50 115q0 66 50 115t118 49q70 0 120 -49t50 -115zM1425 147q0 -67 -50.5 -115t-119.5 -48
q-70 0 -121 48t-51 115q0 66 51.5 115t120.5 49t119.5 -49t50.5 -115z" />
    <glyph glyph-name="perthousand" unicode="&#x2030;" horiz-adv-x="2926" 
d="M475 657q-178 0 -292.5 119.5t-114.5 304.5q0 186 114.5 306t292.5 120q175 0 290.5 -120.5t115.5 -305.5q0 -181 -117 -302.5t-289 -121.5zM408 0l907 1468h278l-905 -1468h-280zM475 1262q-38 0 -63.5 -22t-35.5 -57t-13 -58t-3 -44q0 -13 1.5 -29t8 -44.5t17.5 -50.5
t34 -39t54 -17q37 0 64 30.5t39 70t12 79.5t-10 78.5t-37.5 70.5t-67.5 32zM1546 -31q-175 0 -290 120.5t-115 307.5q0 184 115 304t290 120q177 0 291.5 -119.5t114.5 -304.5q0 -184 -116 -306t-290 -122zM2421 -31q-177 0 -290.5 120t-113.5 308q0 185 113.5 304.5
t290.5 119.5t292 -120t115 -304t-116 -306t-291 -122zM1546 578q-31 0 -53.5 -16t-34 -37.5t-18 -50t-7.5 -45t-1 -32.5q0 -14 1 -30t7.5 -45t18 -51t34 -39t53.5 -17q55 0 85 57t30 125q0 39 -10 77.5t-37.5 71t-67.5 32.5zM2421 578q-38 0 -63.5 -22.5t-35.5 -57
t-13 -57.5t-3 -44q0 -18 3 -41t13 -58.5t35.5 -59t63.5 -23.5q55 0 87 57.5t32 124.5q0 63 -30.5 122t-88.5 59z" />
    <glyph glyph-name="guilsinglleft" unicode="&#x2039;" horiz-adv-x="862" 
d="M418 82l-322 479l324 483h336l-332 -483l334 -479h-340z" />
    <glyph glyph-name="guilsinglright" unicode="&#x203a;" horiz-adv-x="862" 
d="M86 82l336 479q-57 85 -174 253t-160 230h338l322 -483l-320 -479h-342z" />
    <glyph glyph-name="fraction" unicode="&#x2044;" horiz-adv-x="1126" 
d="M-23 0l928 1499h232l-926 -1499h-234z" />
    <glyph glyph-name="Euro" unicode="&#x20ac;" 
d="M1421 319q-3 -6 -11.5 -22.5t-32 -50.5t-53 -68.5t-77 -72.5t-101.5 -67t-128.5 -48t-155.5 -19q-109 0 -209.5 28.5t-191 87.5t-157.5 161.5t-97 238.5h-168v234l147 4q0 41 2 66h-149v235h188q42 142 154 274q93 105 218.5 163.5t262.5 58.5q74 0 144 -17.5t121 -42.5
t99 -62t76.5 -65t56 -63t33.5 -44.5t13 -21.5l-285 -151q-6 14 -23.5 38.5t-49 59t-81 58.5t-104.5 24q-93 0 -167.5 -56t-121.5 -153h410v-235h-471q-2 -23 -2 -70h473v-234h-440q36 -102 114 -165.5t205 -63.5q53 0 98.5 19.5t72.5 47t47 56.5t28 47t8 21z" />
    <glyph glyph-name="trademark" unicode="&#x2122;" horiz-adv-x="1808" 
d="M1640 1565v-836h-221v260l-180 -207l-178 207v-260h-219v836l397 -453zM100 1499h678v-205h-229v-565h-221v565h-228v205z" />
    <glyph glyph-name="notequal" unicode="&#x2260;" horiz-adv-x="1196" 
d="M786 729q-12 -24 -31.5 -59.5t-34.5 -65.5t-30 -61h375v-279h-516l-100 -194h-322l100 194h-121v279h263q18 35 48 93t48 93h-359v279h502l99 194h321l-104 -194h141v-279h-279z" />
    <glyph glyph-name="lessequal" unicode="&#x2264;" horiz-adv-x="1107" 
d="M94 991l895 404v-338l-497 -176l497 -164v-344l-895 383v235zM92 0v279h901v-279h-901z" />
    <glyph glyph-name="greaterequal" unicode="&#x2265;" horiz-adv-x="1107" 
d="M991 991v-235l-895 -383v344l496 164l-496 176v338zM993 0h-901v279h901v-279z" />
    <glyph glyph-name="NULL" horiz-adv-x="0" 
 />
    <glyph glyph-name="CR" horiz-adv-x="729" 
 />
    </font>
</defs>
</svg>
